<?xml version="1.0" encoding="UTF-8"?>
<svg id="uuid-883a4f3e-6cae-4d96-9ac5-60091ea08921" data-name="Layer 1" xmlns="http://www.w3.org/2000/svg" viewBox="0 0 2000 2000">
  <defs>
    <style>
      .uuid-c68380fe-8e6e-4d57-90b2-caf447d5c686 {
        fill: none;
        stroke: #fff;
        stroke-miterlimit: 10;
      }

      .uuid-3ac6371d-01b6-4ea4-8676-a0688d505c82 {
        fill: #999eff;
      }

      .uuid-fadf8862-fb18-4228-9cfc-1a98d0d7745c {
        fill: #00c893;
      }
    </style>
  </defs>
  <path class="uuid-c68380fe-8e6e-4d57-90b2-caf447d5c686" d="m732.739,1412.1645c-102.5545,87.4044-238.0931,17.3736-292.5135-9.3231-48.5226-23.8035-75.7505-75.7505-16.3155-142.1779,9.0551,2.2725,30.1953,5.4074,55.9388-3.4962,6.8758-2.3774,34.4141-11.8986,48.9465-37.2926,12.3066-21.5014,7.9829-46.4759-1.1654-95.5622-4.5101-24.1936-5.454-21.5248-19.8117-82.7429-3.7992-16.1757-11.316-49.0747-11.6539-90.9006-.1748-22.5037,1.7831-39.9963,11.6539-44.2849,4.4401-1.9229,10.1855-1.2121,13.9847,1.1654,9.3231,5.827,12.2716,24.0653,19.8117,36.1272,5.827,9.3231,13.6817,8.6938,18.6463,5.827,5.454-3.1349,5.9319-14.5791,1.1654-37.2926-6.9107-32.934-16.1175-47.9326-27.9694-78.0813,0,0-22.8533-58.1064-15.1501-104.8853.4429-2.7037,1.7831-10.2088,6.9924-12.8193,0,0,3.368-1.55,8.1577,0,23.9139,7.7615,121.2008,159.6587,121.2008,159.6587,23.3078,41.9541,94.3968,108.3815,127.6105,161.4068,26,41.5113,51.0442,93.6626,53.608,165.4857.9906,27.7946,2.4358,90.8306-34.9618,151.501-12.2366,19.8583-31.9433,31.8269-68.2454,57.8849"/>
  <path class="uuid-fadf8862-fb18-4228-9cfc-1a98d0d7745c" d="m616.8759,1282.8059s11.645,1.0586,25.4073-14.8209c19.7616-22.8019,25.9367-54.5199,25.9367-54.5199,0,0,5.2932,30.1712,23.2901,53.9906,10.0974,13.3642,31.2298,15.3503,31.2298,15.3503,0,.5293-27.5246,8.4691-35.9937,18.5262-16.0058,19.0069-18.5262,50.8147-18.5262,50.8147,0,0-4.2987-26.4266-16.9382-47.1094-11.645-19.0555-34.4058-22.2314-34.4058-22.2314Z"/>
  <path class="uuid-fadf8862-fb18-4228-9cfc-1a98d0d7745c" d="m543.3628,1007.7733s21.4083,1.9462,46.7089-27.2469c36.3298-41.919,47.682-100.2296,47.682-100.2296,0,0,9.731,55.4668,42.8165,99.2565,18.5631,24.5688,57.4131,28.22,57.4131,28.22,0,.9731-50.6013,15.5696-66.171,34.0586-29.4252,34.9424-34.0586,93.4178-34.0586,93.4178,0,0-7.9028-48.5828-31.1393-86.6061-21.4083-35.0317-63.2517-40.8703-63.2517-40.8703Z"/>
  <path class="uuid-fadf8862-fb18-4228-9cfc-1a98d0d7745c" d="m327.0935,1173.259s35.9137,3.2649,78.3571-45.7083c60.9455-70.3217,79.9895-168.1412,79.9895-168.1412,0,0,16.3244,93.049,71.8273,166.5088,31.1407,41.2156,96.3139,47.3407,96.3139,47.3407,0,1.6324-84.8868,26.119-111.0058,57.1354-49.3625,58.618-57.1354,156.7141-57.1354,156.7141,0,0-13.2574-81.5006-52.238-145.2871-35.9137-58.7678-106.1085-68.5624-106.1085-68.5624Z"/>
  <path class="uuid-c68380fe-8e6e-4d57-90b2-caf447d5c686" d="m754.8115,1396.047c-36.8962,26.4778-71.5316,45.6253-89.0825,53.9927-63.0594,30.0788-209.2462,65.6815-347.2869-5.827-34.8103-18.0286-125.874-65.2036-157.328-165.4857-25.4172-81.0298,3.368-154.298,14.5674-184.7147,4.0789-11.0712,26.3495-55.8806,72.837-129.9412,98.6388-157.1299,106.1789-151.6758,120.6181-171.8954,2.9135-4.0789,10.9547-15.7445,20.3944-22.7251,3.9624-2.9368,8.4841-6.1766,12.8193-4.6616,5.3724,1.8763,3.5894,11.8171,6.9924,12.8193,5.1743,1.5267,15.4997-18.7861,18.0636-23.8905,12.3648-24.6247,18.5414-36.943,25.6386-53.608,27.9577-65.7165,40.4158-70.2848,46.6157-71.0889,1.1421-.1515,8.8803-1.0372,15.1501,3.4962,7.2021,5.2093,8.7054,14.8471,9.3231,25.6386,1.2819,22.562-2.6571,40.9169-13.9847,60.6004-9.125,15.8493-23.2263,39.4718-29.1348,50.1119,0,0-15.4531,25.1375-23.3078,52.4427-.979,3.4146-1.5849,6.9574,0,8.1577,1.9113,1.4451,6.4562-.909,9.3231-3.4962,4.8947-4.4169,6.8758-8.0062,10.4885-12.8193,3.4962-4.6616,13.5652-15.896,20.9771-12.8193,7.004,2.9018,8.6123,13.5535,9.3231,18.6463,2.8436,20.4643-6.0018,39.0872-20.9771,62.9312-16.0591,25.5687-22.8067,31.1043-34.9618,48.9465-4.3236,6.3397-25.4522,37.8985-38.4579,80.4121-2.3541,7.7032-13.7284,46.0913-11.6539,96.7276.8857,21.6996,5.2909,79.1883,39.7166,141.5718,25.9766,47.0702,57.0343,75.2261,66.3341,83.3489,33.5749,29.3212,65.8447,44.0984,80.4121,50.1119,7.252,2.9936,37.7361,14.6209,80.1207,18.1918,35.9705,3.0304,65.9701-1.0382,86.5304-5.3724"/>
  <g>
    <path class="uuid-3ac6371d-01b6-4ea4-8676-a0688d505c82" d="m980.5391,979.6201v-18.8296c-.21-6.6807-4.8613-13.1812-10.7891-13.1812-2.4482,0-5.1143,1.1074-7.7715,3.7661-12.1055,12.9121-29.5898,19.6367-47.8818,19.6367-53.0996,0-88.5-39.8115-88.5-99.5288,0-45.542,29.1865-83.874,68.7285-94.9561h-37.7939c-31.4727,0-77.3096.5513-112.1719.5513-36.0723,0-59.9863,22.0444-59.9863,52.4414,0,16.9468,13.0732,30.9478,29.0518,30.9478,6.0527,0,11.1367,5.1113,11.1367,11.5669h-4.8418c-21.7891,0-40.1885-19.1123-40.1885-42.5146,0-36.853,27.249-61.5869,68.6484-61.5869,39.2197,0,74.1885,5.3662,108.3516,5.3662h61.3311c18.292,0,35.75,5.5532,49.2266,16.9468,1.4531,1.228,2.4209,3.228,2.959,5.1108l1.0762-.2686c-.5381-2.1523-.8066-3.7661-.8066-6.187l-1.3428-26.2227,2.6875-.1392,4.3037,82.8511-4.5732.269-1.0752-17.7539c-1.916-31.5874-27.707-49.7646-55.1445-49.7646-39.7041,0-66.1738,35.6152-66.1738,89.0381,0,54.6431,29.6455,98.9912,66.1738,98.9912,17.7539-.269,35.5078-7.2632,46.5361-22.0576v-35.2388c0-15.064-9.9531-25.0166-25.0166-25.0166h-31.2041v-4.8423h100.3359v4.8423h-22.8643v95.7627h-2.4209Z"/>
    <path class="uuid-3ac6371d-01b6-4ea4-8676-a0688d505c82" d="m1037.835,833.8237c0-4.8027-3.5635-8.6562-8.9043-8.6562-.3428,0-.6924.0161-1.0488.0483l-15.8701,1.3452-.2695-1.6143,20.7129-4.3037c10.7598-2.1523,21.7891-8.6216,21.7891-19.6372v-1.0757h2.1514v21.5195c0,9.146-.9414,20.9819-2.1514,24.748v.5381h2.6221c6.7549-22.4351,24.5967-38.4746,45.5283-38.4746,32.1182,0,53.5303,15.2822,53.5303,38.2056,0,23.7139-26.4209,43.001-59.5137,44.0688,31.1699,6.3926,38.3408,24.3003,40.3779,36.3936,2.5957,15.4131,8.5361,38.5127,24.2266,38.5127,9.2119,0,15.3525-6.918,15.3525-17.2944,0-14.5259-11.0283-21.2505-23.4023-22.8647,0-2.4209,4.1963-4.0347,10.4912-4.0347,7.5312,4.5728,15.332,14.7944,15.332,26.8994,0,14.2432-9.9893,23.7388-24.9736,23.7388-25.916,0-33.8779-29.0303-38.6797-48.8789-3.6895-15.2549-11.1279-32.4253-46.3662-32.4253h-9.9531v61.8696c0,9.4146,5.1113,14.2568,14.5264,14.2568h16.9463v2.1519h-76.126v-2.4209h9.415c9.415,0,14.2568-4.8418,14.2568-14.2568v-118.3589Zm52.4541,52.1855c25.3398,0,42.2334-15.8169,42.2334-39.5425,0-20.1797-12.0518-33.6328-30.1279-33.6328-24.0547,0-43.5781,25.0698-43.5781,55.9595v17.2158h31.4727Z"/>
    <path class="uuid-3ac6371d-01b6-4ea4-8676-a0688d505c82" d="m1214.8379,876.5942c0,67.8633,62.498,108.6748,167.0049,108.6748,42.3008,0,91.1543-11.5625,114.0967-37.3906l1.8838,1.8833c-26.3115,28.8999-79.4336,42.9917-126.8779,42.9917-115.0234,0-180.0479-45.7104-180.0479-111.855,0-40.0913,33.0928-72.6294,73.7832-72.6294,37.9287,0,63.1357,19.1528,63.1357,47.8813v1.3452c0,4.3062-3.6982,7.8008-8.2607,7.8008l-54.1016-.9414c-9.6514,0-17.5293,7.2305-17.5293,16.1396v15.333c-6.3857,0-11.5225-5.4229-11.5225-12.105,0-13.8833,12.9951-25.1514,29.0068-25.1514h38.5449c1.6143,0,2.1514-.8066,2.1514-2.4209,0-25.8237-17-43.0396-42.501-43.0396-28.541,0-48.7666,25.23-48.7666,63.4834Z"/>
    <path class="uuid-3ac6371d-01b6-4ea4-8676-a0688d505c82" d="m1408.5176,880.4946v15.333c-6.3867,0-11.5996-5.4229-11.5996-12.105,0-13.8833,12.9951-25.1514,29.0059-25.1514h39.3516c1.6143,0,2.1523-.8066,2.1523-2.4209,0-25.8237-17.001-43.0396-42.502-43.0396-31.957,0-53.2607,23.2417-53.2607,58.1035,0,36.082,25.1855,65.3662,56.2197,65.3662,26.123,0,47.5352-9.9526,60.7158-27.1685l3.2275,3.228c-14.2568,18.0225-36.3896,28.7827-63.9434,28.7827-43.209,0-78.2783-29.5254-78.2783-65.9043,0-37.1221,34.2246-67.2495,76.3955-67.2495,37.9287,0,63.2148,19.1528,63.2148,47.8813v1.3452c0,4.3062-3.7363,7.8008-8.3389,7.8008l-54.9082-.9414c-9.6514,0-17.4521,7.2305-17.4521,16.1396Z"/>
    <path class="uuid-3ac6371d-01b6-4ea4-8676-a0688d505c82" d="m1513.4238,966.4395h9.415c12.9121,0,14.2568-1.3452,14.2568-14.2612v-118.3545c0-4.8032-3.5635-8.6562-8.9043-8.6562-.3428,0-.6924.0161-1.0488.0483l-15.8701,1.3452-.2695-1.6143,20.7129-4.3037c10.7598-2.1523,19.9053-8.6216,19.9053-19.6372v-1.0757h2.1523v35.2388c0,4.3037-.2686,25.8237-.5381,28.2446h1.8828c.5381-4.8423,2.7383-12.8955,4.3047-17.4849,7.8008-22.8647,26.8994-37.6597,49.2266-37.6597,29.0518,0,45.1914,16.2476,45.1914,40.6187v67.5176c-1.7549,3.7949-2.5049,7.5752-2.5049,10.8735,0,23.6577,17.6797,39.4297,44.1992,39.4297,30.5879,0,55.4131-23.8613,55.4131-53.2617,0-20.7881-17.4736-37.6597-39.0039-37.6597-6.6826,0-12.1055-5.1816-12.1055-11.5669h5.3799c27.916,0,50.5713,22.0537,50.5713,49.2266,0,33.7065-27.4756,61.0625-61.3311,61.0625-36.96,0-61.6006-23.1333-61.6006-57.833v-63.2158c0-26.4014-7.4775-40.6187-26.3613-40.6187-27.4375,0-48.4199,26.3618-48.4199,65.6357v73.7007c0,12.916,1.6143,14.2612,14.5264,14.2612h9.415v2.4209h-68.5947v-2.4209Z"/>
  </g>
  <g>
    <path class="uuid-fadf8862-fb18-4228-9cfc-1a98d0d7745c" d="m1118.7822,1073.1367c18.0225,0,35.585,5.5234,49.2256,17.2158,1.3457,1.3447,2.4219,3.4971,2.959,5.3799l1.8838-.5381c-.5381-2.1514-.7324-5.1055-.8076-7.8008l-.5381-19.5615,2.4209-.0752,2.4219,77.7402-4.8428.1514-.8066-24.8984c-1.3447-24.2109-27.4189-43.0439-54.0332-43.0439-40.6934,0-67.8223,35.7246-67.8223,89.3105,0,54.6436,31.6943,98.9912,70.7461,98.9912,25.5547,0,50.4561-14.0879,59.7822-36.7363l4.5078,1.7666c-10.5098,26.8311-36.583,39.8115-64.8281,39.8115h-180.4033c-26.1465,0-53.0859,14.2568-66.8047,31.2031l-1.6143-1.6133c25.8232-31.7422,53.167-43.5781,79.3135-43.5781,30.2607,0,98.4932,11.0293,129.6963,11.0293h14.291c-42.0254-10.25-68.6279-46.3789-68.6279-96.5703,0-54.1973,42.0586-98.1836,93.8809-98.1836Z"/>
    <path class="uuid-fadf8862-fb18-4228-9cfc-1a98d0d7745c" d="m1212.9316,1072.0605c0-5.1104-2.8242-8.0703-8.0693-8.0703h-12.6436v-2.4199h15.333c11.0156,0,24.21-3.2422,24.21-14.2578v-1.0752h2.1523v189.374c-1.7549,3.9297-2.5049,7.5742-2.5049,10.873,0,9.1436,8.0195,16.5645,17.2988,16.5645,9.3613,0,15.6025-6.3477,15.6025-15.8711,0-2.8066-.4121-5.4219-1.166-7.8281l2.1758-1.0752c.8945,2.8008,1.4111,5.79,1.4111,8.9033,0,14.2031-9.8994,23.6719-24.748,23.6719-15.7676,0-29.0518-15.666-29.0518-34.9697v-163.8193Z"/>
    <path class="uuid-fadf8862-fb18-4228-9cfc-1a98d0d7745c" d="m1329.9873,1199.1621v15.332c-6.3848,0-11.5664-5.4219-11.5664-12.1035,0-15.3691,14.2002-27.8418,31.6963-27.8418h57.6436c1.6152,0,2.1523-.8066,2.1523-2.4209,0-35.5078-20.0137-59.1797-50.0342-59.1797-34.7002,0-57.9121,28.6221-57.9121,71.5537,0,44.9912,26.1084,81.5059,58.1816,81.5059,31.8789,0,56.3418-14.8105,68.209-39.668l4.0732,2.6836c-12.7236,26.0635-38.6143,41.8262-72.2822,41.8262-48.5811,0-81.0459-32.8174-81.0459-82.0439,0-44.6533,36.7129-80.6992,81.8525-80.6992,42.7705,0,71.2061,25.6084,71.2061,64.0215v1.3447c0,4.3066-3.6572,7.8008-8.2607,7.8008l-73.7383-.9414c-11.1367,0-20.1748,8.4355-20.1748,18.8301Z"/>
    <path class="uuid-fadf8862-fb18-4228-9cfc-1a98d0d7745c" d="m1515.8203,1112.9482c-26.6309,0-40.6895,15.6514-41.7002,36.54l-.8066,16.6777-4.8369.0439,2.959-63.4834h2.6895l-.8066,14.2568c-.2686,3.7666-.5381,6.7256-1.0762,8.6084l1.8828.5371c.2695-.8066,2.4219-4.8418,4.3047-6.1865,8.3389-6.1865,20.9814-11.8359,37.1211-11.8359,41.4795,0,69.1328,19.583,69.1328,48.958v92.5352c0,10.7598.8066,13.7188,8.877,13.7188,1.6133,0,5.3799-.2695,5.3799-.2695l4.5723-.2695.2695,2.4219c-13.1807,1.3447-21.6572,3.4756-29.3213,5.918v-2.1523c0-6.6699-1.3535-15.8096-2.835-24.21-1.207-6.8447-2.1543-13.2568-2.2754-17.4854h-2.6904c-8.0664,32.2666-39.2734,43.5781-58.6406,43.5781-33.7324,0-56.2207-17.1074-56.2207-42.7705,0-29.5361,22.3809-49.2266,55.9512-49.2266,21.9727,0,39.8057,13.7383,39.8057,30.666,0,6.6816-5.1816,12.1045-11.5664,12.1045v-12.6426c0-13.958-12.6514-25.2852-28.2393-25.2852-20.6592,0-34.4316,17.4297-34.4316,43.5762,0,21.7891,15.1719,36.3154,37.9287,36.3154,28.9551,0,52.4541-24.9463,52.4541-55.6826v-54.3379c0-24.3711-19.1523-40.6182-47.8809-40.6182Z"/>
    <path class="uuid-fadf8862-fb18-4228-9cfc-1a98d0d7745c" d="m1613.1963,1266.2773h9.415c12.9121,0,14.2568-1.3457,14.2568-14.2617v-118.3545c0-4.8037-3.5635-8.6562-8.9043-8.6562-.3428,0-.6924.0166-1.0488.0479l-15.8701,1.3457-.2695-1.6143,20.7129-4.3037c10.7598-2.1523,19.9062-8.6211,19.9062-19.6367v-1.0762h2.1514v35.2383c0,4.3047-.2686,25.8242-.5381,28.2451h1.8828c.5381-4.8428,2.7383-12.8955,4.3047-17.4854,7.8008-22.8643,26.8994-37.6592,49.2266-37.6592,29.0508,0,45.1914,16.2471,45.1914,40.6182v67.5176c-1.7549,3.7949-2.5049,7.5762-2.5049,10.874,0,23.6572,17.6797,39.4297,44.1992,39.4297,30.5879,0,55.4131-23.8613,55.4131-53.2617,0-20.7881-17.4736-37.6592-39.0039-37.6592-6.6826,0-12.1055-5.1816-12.1055-11.5674h5.3799c27.916,0,50.5713,22.0537,50.5713,49.2266,0,33.7061-27.4756,61.0625-61.3311,61.0625-36.96,0-61.6006-23.1338-61.6006-57.833v-63.2158c0-26.4014-7.4775-40.6182-26.3613-40.6182-27.4375,0-48.4199,26.3613-48.4199,65.6348v73.7012c0,12.916,1.6143,14.2617,14.5264,14.2617h9.415v2.4199h-68.5947v-2.4199Z"/>
  </g>
</svg>