<?xml version="1.0" encoding="UTF-8"?>
<svg id="Layer_1" data-name="Layer 1" xmlns="http://www.w3.org/2000/svg" viewBox="0 0 1880.1256 269.4849">
  <g>
    <path d="m463.3389,181.2827v-14.6299c-.1631-5.1904-3.7764-10.2412-8.3828-10.2412-1.9023,0-3.9736.8604-6.0381,2.9268-9.4053,10.0312-22.9902,15.2559-37.2021,15.2559-41.2563,0-68.7607-30.9312-68.7607-77.3291,0-35.3843,22.6772-65.167,53.3994-73.7769h-29.3643c-24.4531,0-60.0669.4282-87.1528.4282-28.0269,0-46.6069,17.1274-46.6069,40.7446,0,13.167,10.1572,24.0454,22.5718,24.0454,4.7026,0,8.6528,3.9707,8.6528,8.9868h-3.7622c-16.9292,0-31.2246-14.8491-31.2246-33.0322,0-28.6328,21.1719-47.8506,53.3369-47.8506,30.4722,0,57.6421,4.1694,84.1851,4.1694h47.6519c14.2119,0,27.7759,4.3149,38.2466,13.167,1.1289.9541,1.8809,2.5083,2.2988,3.9712l.8359-.209c-.418-1.6719-.627-2.9263-.627-4.8071l-1.043-20.3735,2.0889-.1084,3.3438,64.3721-3.5537.209-.8359-13.7939c-1.4873-24.542-21.5264-38.665-42.8447-38.665-30.8481,0-51.4136,27.6714-51.4136,69.1787,0,42.4556,23.0332,76.9116,51.4136,76.9116,13.7944-.209,27.5884-5.6426,36.1572-17.1377v-27.3789c0-11.7041-7.7329-19.437-19.437-19.437h-24.2441v-3.7617h77.9565v3.7617h-17.7646v74.4038h-1.8809Z" fill="#999eff"/>
    <path d="m507.8536,68.0049c0-3.7314-2.7695-6.7251-6.9189-6.7251-.2656,0-.5381.0122-.8145.0371l-12.3311,1.0449-.209-1.2539,16.0928-3.3438c8.3604-1.6719,16.9297-6.6987,16.9297-15.2568v-.8364h1.6719v16.7202c0,7.106-.7314,16.3018-1.6719,19.228v.418h2.0371c5.248-17.4307,19.1113-29.8931,35.373-29.8931,24.9551,0,41.5918,11.8735,41.5918,29.6841,0,18.4248-20.5283,33.4102-46.2402,34.2397,24.2178,4.9668,29.7891,18.8799,31.3721,28.2764,2.0166,11.9751,6.6318,29.9219,18.8232,29.9219,7.1572,0,11.9287-5.374,11.9287-13.4355,0-11.2866-8.5693-16.5117-18.1836-17.7656,0-1.8809,3.2607-3.1353,8.1514-3.1353,5.8516,3.5532,11.9131,11.4951,11.9131,20.9009,0,11.0654-7.7617,18.4434-19.4043,18.4434-20.1348,0-26.3213-22.5557-30.0518-37.9771-2.8672-11.8521-8.6455-25.1929-36.0254-25.1929h-7.7324v48.0703c0,7.3145,3.9707,11.0762,11.2861,11.0762h13.167v1.6719h-59.1475v-1.8809h7.3154c7.3145,0,11.0771-3.7617,11.0771-11.0762v-91.9604Zm40.7549,40.5459c19.6875,0,32.8125-12.2891,32.8125-30.7227,0-15.6787-9.3633-26.1313-23.4082-26.1313-18.6895,0-33.8574,19.4785-33.8574,43.478v13.376h24.4531Z" fill="#999eff"/>
    <path d="m645.376,101.2358c0,52.7275,48.5586,84.4365,129.7559,84.4365,32.8662,0,70.8232-8.9844,88.6484-29.0508l1.4629,1.4629c-20.4414,22.4531-61.7158,33.4023-98.5781,33.4023-89.3682,0-139.8896-35.5156-139.8896-86.9067,0-31.1494,25.7119-56.4302,57.3262-56.4302,29.4688,0,49.0547,14.8809,49.0547,37.2021v1.0449c0,3.3457-2.874,6.061-6.4189,6.061l-42.0342-.7314c-7.499,0-13.6201,5.6177-13.6201,12.54v11.9126c-4.9609,0-8.9521-4.2134-8.9521-9.4048,0-10.7866,10.0967-19.5415,22.5371-19.5415h29.9473c1.2539,0,1.6719-.627,1.6719-1.8809,0-20.064-13.208-33.4399-33.0215-33.4399-22.1758,0-37.8896,19.6025-37.8896,49.3237Z" fill="#999eff"/>
    <path d="m795.8555,104.2666v11.9126c-4.9619,0-9.0117-4.2134-9.0117-9.4048,0-10.7866,10.0967-19.5415,22.5361-19.5415h30.5742c1.2549,0,1.6729-.627,1.6729-1.8809,0-20.064-13.209-33.4399-33.0225-33.4399-24.8291,0-41.3818,18.0576-41.3818,45.144,0,28.0342,19.5684,50.7866,43.6807,50.7866,20.2959,0,36.9326-7.7329,47.1738-21.1089l2.5078,2.5078c-11.0771,14.0034-28.2734,22.3633-49.6816,22.3633-33.5713,0-60.8184-22.9399-60.8184-51.2051,0-28.8418,26.5908-52.25,59.3555-52.25,29.4688,0,49.1152,14.8809,49.1152,37.2021v1.0449c0,3.3457-2.9033,6.061-6.4795,6.061l-42.6611-.7314c-7.498,0-13.5596,5.6177-13.5596,12.54Z" fill="#999eff"/>
    <path d="m877.3624,171.0415h7.3154c10.0322,0,11.0771-1.0449,11.0771-11.0801v-91.9565c0-3.7319-2.7695-6.7251-6.9189-6.7251-.2656,0-.5381.0122-.8145.0371l-12.3311,1.0449-.209-1.2539,16.0928-3.3438c8.3604-1.6719,15.4668-6.6987,15.4668-15.2568v-.8364h1.6719v27.3789c0,3.3442-.209,20.064-.418,21.9453h1.4629c.418-3.7622,2.127-10.019,3.3438-13.585,6.0605-17.7651,20.9004-29.2603,38.2471-29.2603,22.5713,0,35.1113,12.6235,35.1113,31.5591v52.4585c-1.3623,2.9482-1.9453,5.8857-1.9453,8.4482,0,18.3809,13.7363,30.6348,34.3408,30.6348,23.7656,0,43.0537-18.5386,43.0537-41.3813,0-16.1519-13.5762-29.2603-30.3047-29.2603-5.1914,0-9.4053-4.0259-9.4053-8.9868h4.1797c21.6895,0,39.292,17.1348,39.292,38.2471,0,26.188-21.3477,47.4429-47.6514,47.4429-28.7168,0-47.8613-17.9736-47.8613-44.9341v-49.1157c0-20.5132-5.8096-31.5591-20.4814-31.5591-21.3184,0-37.6201,20.4819-37.6201,50.9956v57.2627c0,10.0352,1.2539,11.0801,11.2861,11.0801h7.3145v1.8809h-53.2949v-1.8809Z" fill="#999eff"/>
  </g>
  <g>
    <path d="m1209.6612,20.8999c14.0029,0,27.6484,4.2915,38.2471,13.376,1.0449,1.0449,1.8809,2.7173,2.2988,4.1802l1.4629-.418c-.418-1.6719-.5684-3.9668-.627-6.061l-.418-15.1982,1.8809-.0586,1.8809,60.4009-3.7617.1172-.627-19.3452c-1.0449-18.8101-21.3037-33.4429-41.9814-33.4429-31.6172,0-52.6953,27.7563-52.6953,69.3906,0,42.4556,24.625,76.9116,54.9668,76.9116,19.8555,0,39.2021-10.9453,46.4482-28.5415l3.5029,1.3721c-8.166,20.8452-28.4238,30.9312-50.3691,30.9312h-140.166c-20.3154,0-41.2451,11.0781-51.9053,24.2441l-1.2539-1.2539c20.0645-24.6621,41.3086-33.8574,61.624-33.8574,23.5107,0,76.5244,8.5684,100.7686,8.5684h11.1035c-32.6523-7.9639-53.3203-36.0347-53.3203-75.0303,0-42.1094,32.6768-76.2852,72.9404-76.2852Z" fill="#00c893"/>
    <path d="m1282.8087,20.064c0-3.9707-2.1943-6.27-6.2695-6.27h-9.8232v-1.8809h11.9131c8.5586,0,18.8096-2.5186,18.8096-11.0771v-.8359h1.6729v147.1357c-1.3633,3.0532-1.9463,5.8853-1.9463,8.4478,0,7.1045,6.2305,12.8701,13.4404,12.8701,7.2734,0,12.1221-4.9316,12.1221-12.3311,0-2.1807-.3193-4.2124-.9053-6.0815l1.6904-.8359c.6953,2.1758,1.0957,4.4985,1.0957,6.9175,0,11.0352-7.6904,18.3916-19.2275,18.3916-12.251,0-22.5723-12.1719-22.5723-27.1694V20.064Z" fill="#00c893"/>
    <path d="m1373.7559,118.8164v11.9131c-4.9609,0-8.9863-4.2134-8.9863-9.4053,0-11.9404,11.0322-21.6313,24.627-21.6313h44.7861c1.2549,0,1.6719-.627,1.6719-1.8809,0-27.5879-15.5488-45.98-38.874-45.98-26.9609,0-44.9951,22.2373-44.9951,55.5938,0,34.9565,20.2852,63.3267,45.2041,63.3267,24.7686,0,43.7754-11.5068,52.9961-30.8193l3.165,2.085c-9.8857,20.25-30.002,32.4961-56.1611,32.4961-37.7451,0-62.9688-25.4976-62.9688-63.7441,0-34.6938,28.5244-62.7002,63.5957-62.7002,33.2314,0,55.3252,19.897,55.3252,49.7422v1.0449c0,3.3457-2.8428,6.061-6.4189,6.061l-57.291-.7314c-8.6533,0-15.6758,6.5542-15.6758,14.6299Z" fill="#00c893"/>
    <path d="m1518.1387,51.832c-20.6904,0-31.6133,12.1602-32.3984,28.3901l-.627,12.958-3.7578.0337,2.2988-49.3237h2.0898l-.627,11.0767c-.209,2.9263-.418,5.2251-.8359,6.688l1.4629.418c.209-.627,1.8809-3.7617,3.3438-4.8066,6.4795-4.8071,16.3018-9.1963,28.8418-9.1963,32.2275,0,53.7129,15.2153,53.7129,38.0381v71.8965c0,8.3594.627,10.6582,6.8975,10.6582,1.2539,0,4.1797-.209,4.1797-.209l3.5527-.209.209,1.8809c-10.2402,1.0449-16.8262,2.7012-22.7803,4.5977v-1.6719c0-5.1816-1.0518-12.2832-2.2031-18.8096-.9375-5.3184-1.6748-10.3003-1.7686-13.585h-2.0898c-6.2666,25.0693-30.5137,33.8574-45.5615,33.8574-26.209,0-43.6807-13.292-43.6807-33.2305,0-22.9482,17.3887-38.2466,43.4717-38.2466,17.0713,0,30.9277,10.6738,30.9277,23.8257,0,5.1914-4.0264,9.4053-8.9873,9.4053v-9.8232c0-10.8447-9.8291-19.646-21.9404-19.646-16.0518,0-26.752,13.5435-26.752,33.8579,0,16.9297,11.7871,28.2148,29.4688,28.2148,22.4971,0,40.7549-19.3818,40.7549-43.2627v-42.2178c0-18.9355-14.8809-31.5591-37.2021-31.5591Z" fill="#00c893"/>
    <path d="m1593.795,170.9614h7.3154c10.0322,0,11.0771-1.0449,11.0771-11.0801v-91.9565c0-3.7319-2.7695-6.7251-6.9189-6.7251-.2656,0-.5381.0122-.8145.0371l-12.3311,1.0449-.209-1.2539,16.0928-3.3438c8.3604-1.6719,15.4658-6.6987,15.4658-15.2568v-.8364h1.6729v27.3789c0,3.3442-.209,20.064-.418,21.9453h1.4629c.418-3.7622,2.127-10.019,3.3438-13.585,6.0605-17.7651,20.9004-29.2603,38.2471-29.2603,22.5723,0,35.1113,12.6235,35.1113,31.5591v52.4585c-1.3623,2.9482-1.9453,5.8857-1.9453,8.4482,0,18.3809,13.7363,30.6348,34.3408,30.6348,23.7656,0,43.0537-18.5386,43.0537-41.3813,0-16.1519-13.5762-29.2603-30.3047-29.2603-5.1914,0-9.4053-4.0259-9.4053-8.9868h4.1797c21.6895,0,39.292,17.1348,39.292,38.2471,0,26.188-21.3477,47.4429-47.6514,47.4429-28.7168,0-47.8613-17.9736-47.8613-44.9341v-49.1157c0-20.5132-5.8096-31.5591-20.4814-31.5591-21.3184,0-37.6201,20.4819-37.6201,50.9956v57.2627c0,10.0352,1.2539,11.0801,11.2861,11.0801h7.3145v1.8809h-53.2949v-1.8809Z" fill="#00c893"/>
  </g>
  <g>
    <path d="m315.0015,235.394c0,2.2393.5479,4.2705,1.6426,6.0957,1.0952,1.8252,2.5918,3.2734,4.4897,4.3438,1.8979,1.0713,3.9897,1.6064,6.2778,1.6064,2.4331,0,4.5991-.5352,6.4971-1.6064,1.8979-1.0703,3.3945-2.5186,4.4893-4.3438,1.0952-1.8252,1.6426-3.8564,1.6426-6.0957v-34.0176h7.519v34.2373c0,3.8447-.9009,7.2148-2.7012,10.1094-1.8008,2.8965-4.2222,5.1465-7.2632,6.7529-3.042,1.6064-6.4365,2.4092-10.1836,2.4092s-7.1426-.8027-10.1836-2.4092c-3.042-1.6064-5.4512-3.8564-7.2271-6.7529-1.7769-2.8945-2.6646-6.2646-2.6646-10.1094v-34.2373h7.665v34.0176Z" fill="#005740"/>
    <path d="m366.6846,223.7876l.6567,7.0801-.292-1.0215c.9731-2.1895,2.5425-3.9414,4.7085-5.2559,2.165-1.3145,4.7085-1.9707,7.6284-1.9707,2.8711,0,5.231.8398,7.0811,2.5176,1.8491,1.6797,2.7979,3.8828,2.8472,6.6074v22.5566h-7.373v-20.002c-.0488-1.5566-.5112-2.834-1.3872-3.832s-2.2388-1.5215-4.0879-1.5703c-2.5801,0-4.7334,1.0713-6.4604,3.2129-1.728,2.1416-2.5913,4.8906-2.5913,8.248v13.9434h-7.373v-30.5137h6.6431Z" fill="#005740"/>
    <path d="m417.0538,223.7876l.6567,7.0801-.292-1.0215c.9731-2.1895,2.5425-3.9414,4.7085-5.2559,2.165-1.3145,4.7085-1.9707,7.6284-1.9707,2.8711,0,5.231.8398,7.0811,2.5176,1.8491,1.6797,2.7979,3.8828,2.8472,6.6074v22.5566h-7.373v-20.002c-.0488-1.5566-.5112-2.834-1.3872-3.832s-2.2388-1.5215-4.0879-1.5703c-2.5801,0-4.7334,1.0713-6.4604,3.2129-1.728,2.1416-2.5913,4.8906-2.5913,8.248v13.9434h-7.373v-30.5137h6.6431Z" fill="#005740"/>
    <path d="m465.5987,255.0317c-3.5044,0-6.5225-.6934-9.0522-2.0811-2.5308-1.3867-4.478-3.3096-5.8398-5.7666-1.3633-2.457-2.0439-5.2441-2.0439-8.3594,0-3.0166.7661-5.7539,2.2993-8.2119,1.5332-2.457,3.5884-4.417,6.1685-5.876,2.5791-1.4609,5.4502-2.1904,8.6143-2.1904,4.0879,0,7.4824,1.1807,10.1831,3.54,2.7012,2.3613,4.5137,5.6836,5.4385,9.9648l-24.8926,8.6133-1.752-4.2334,20.002-7.2998-1.5332,1.0215c-.584-1.5566-1.5093-2.9072-2.7739-4.0508-1.2661-1.1426-2.9932-1.7158-5.1831-1.7158-2.7261,0-4.9526.9375-6.6797,2.8105-1.728,1.874-2.5913,4.2705-2.5913,7.1904,0,3.1152.9238,5.6211,2.7739,7.5195,1.8491,1.8975,4.1851,2.8467,7.0083,2.8467,1.314,0,2.5786-.2305,3.7959-.6943,1.2158-.4609,2.3599-1.082,3.4312-1.8613l3.3579,5.4756c-1.5581,1.0225-3.2739,1.8369-5.1465,2.4453-1.874.6084-3.7358.9131-5.5845.9131Z" fill="#005740"/>
    <path d="m492.5352,210.4282h7.4458v13.4316h8.1763v5.7676h-8.1763v24.6738h-7.4458v-24.6738h-5.4019v-5.7676h5.4019v-13.4316Z" fill="#005740"/>
    <path d="m519.1793,210.4282h7.4458v13.4316h8.1763v5.7676h-8.1763v24.6738h-7.4458v-24.6738h-5.4019v-5.7676h5.4019v-13.4316Z" fill="#005740"/>
    <path d="m540.2759,238.7524c0-3.0664.73-5.8281,2.1899-8.2852s3.479-4.3926,6.0591-5.8047c2.5786-1.4102,5.5229-2.1162,8.833-2.1162,3.3579,0,6.2891.7061,8.7964,2.1162,2.5059,1.4121,4.4531,3.3477,5.8398,5.8047,1.3872,2.457,2.0806,5.2188,2.0806,8.2852s-.7061,5.8281-2.1172,8.2852c-1.4121,2.458-3.3701,4.4053-5.8765,5.8398-2.5068,1.4355-5.4634,2.1543-8.8691,2.1543-3.2124,0-6.0957-.6572-8.6509-1.9717-2.5547-1.3135-4.5747-3.1992-6.0586-5.6572-1.4854-2.457-2.2266-5.3398-2.2266-8.6504Zm7.4458.0723c0,1.8984.4131,3.6143,1.2412,5.1465.8267,1.5332,1.9585,2.75,3.3945,3.6504,1.4346.9014,3.0293,1.3506,4.7812,1.3506,2.7739,0,5.0483-.9727,6.8257-2.9199,1.7759-1.9463,2.6646-4.3545,2.6646-7.2275,0-2.8711-.8887-5.292-2.6646-7.2627-1.7773-1.9717-4.0518-2.9561-6.8257-2.9561-1.8008,0-3.4072.4629-4.8179,1.3867-1.4121.9248-2.5312,2.166-3.3579,3.7227-.8281,1.5586-1.2412,3.2607-1.2412,5.1094Z" fill="#005740"/>
    <path d="m592.2525,254.52l-14.6729-30.7324h8.249l12.1909,27.0098-5.7671,3.7227Zm-7.5918,14.4541l20.0752-45.1865h6.7886l-19.71,45.1865h-7.1538Z" fill="#005740"/>
    <path d="m630.2862,255.0317c-2.8721,0-5.4751-.6094-7.811-1.8262-2.3359-1.2148-4.186-3.0039-5.5479-5.3652-1.3633-2.3594-2.0439-5.292-2.0439-8.7959,0-3.4062.7173-6.3389,2.1533-8.7969,1.4351-2.4561,3.333-4.3545,5.6938-5.6943,2.3604-1.3379,4.9277-2.0068,7.7017-2.0068,2.9199,0,5.3291.6084,7.2271,1.8252s3.3579,2.6768,4.3799,4.3799l-.438,1.168.73-6.1318h6.7891v30.5137h-7.373v-7.7383l.73,1.8252c-.1948.3896-.6089.9492-1.2407,1.6787-.6333.7305-1.46,1.4727-2.4824,2.2266-1.022.7559-2.2515,1.4004-3.686,1.9346-1.436.5352-3.0298.8037-4.7817.8037Zm1.9712-6.0596c2.4326,0,4.4893-.6445,6.1685-1.9346,1.6787-1.2891,2.7852-3.0527,3.3213-5.293v-6.2773c-.584-1.9951-1.7646-3.6504-3.5405-4.9639-1.7769-1.3135-3.8325-1.9717-6.1685-1.9717-1.752,0-3.3579.4277-4.8179,1.2773-1.46.8525-2.6279,2.0449-3.5039,3.5781s-1.314,3.2969-1.314,5.292c0,1.9473.4492,3.6992,1.3501,5.2559.9004,1.5576,2.1045,2.7861,3.6138,3.6865,1.5078.9014,3.1392,1.3506,4.8911,1.3506Z" fill="#005740"/>
    <path d="m675.5455,269.4849c-2.3359,0-4.3804-.2803-6.1323-.8389-1.752-.5596-3.3213-1.3027-4.7085-2.2266-1.3867-.9248-2.7134-1.9473-3.9785-3.0664l4.3804-5.0361c1.5078,1.459,3.0771,2.6016,4.7085,3.4297,1.6299.8281,3.4912,1.2422,5.5845,1.2422,3.3086,0,5.8638-.7793,7.665-2.3359,1.7998-1.5586,2.7246-3.6504,2.7739-6.2783v-7.957l.5107,1.3867c-.876,2.0439-2.4214,3.7598-4.6353,5.1465-2.2153,1.3877-4.9526,2.0811-8.2124,2.0811-2.8232,0-5.4023-.707-7.7383-2.1172-2.3359-1.4111-4.21-3.333-5.6211-5.7676-1.4121-2.4326-2.1167-5.1826-2.1167-8.248,0-3.1641.7412-5.9746,2.2266-8.4316,1.4839-2.457,3.4424-4.3926,5.8765-5.8047,2.4326-1.4102,5.0366-2.1162,7.811-2.1162,2.7246,0,5.1704.5107,7.3364,1.5322,2.1646,1.0225,3.7593,2.3359,4.7812,3.9434l-.3647,1.2402.73-5.4746h6.7891v30.7324c0,2.7744-.73,5.293-2.1904,7.5557-1.46,2.2627-3.5039,4.0635-6.1318,5.4014-2.6279,1.3389-5.7432,2.0078-9.3438,2.0078Zm-10.0742-30.8057c0,1.9473.4492,3.6992,1.3506,5.2559.8999,1.5576,2.1172,2.7861,3.6499,3.6865,1.5332.9014,3.2485,1.3506,5.1465,1.3506,2.5791,0,4.769-.6689,6.5698-2.0068,1.8003-1.3379,3.0171-3.0547,3.6504-5.1465v-6.2793c-.6333-2.0918-1.874-3.7832-3.7231-5.0723-1.8501-1.2891-4.0151-1.9355-6.4971-1.9355-1.8979,0-3.6133.4385-5.1465,1.3145-1.5327.876-2.75,2.0693-3.6499,3.5771-.9014,1.5088-1.3506,3.2607-1.3506,5.2559Z" fill="#005740"/>
    <path d="m719.0528,255.0317c-3.5044,0-6.5225-.6934-9.0522-2.0811-2.5308-1.3867-4.478-3.3096-5.8398-5.7666-1.3633-2.457-2.0439-5.2441-2.0439-8.3594,0-3.0166.7661-5.7539,2.2993-8.2119,1.5332-2.457,3.5884-4.417,6.1685-5.876,2.5791-1.4609,5.4502-2.1904,8.6143-2.1904,4.0879,0,7.4824,1.1807,10.1831,3.54,2.7012,2.3613,4.5137,5.6836,5.4385,9.9648l-24.8926,8.6133-1.752-4.2334,20.002-7.2998-1.5332,1.0215c-.584-1.5566-1.5093-2.9072-2.7739-4.0508-1.2661-1.1426-2.9932-1.7158-5.1831-1.7158-2.7261,0-4.9526.9375-6.6797,2.8105-1.728,1.874-2.5913,4.2705-2.5913,7.1904,0,3.1152.9238,5.6211,2.7739,7.5195,1.8491,1.8975,4.1851,2.8467,7.0083,2.8467,1.314,0,2.5786-.2305,3.7959-.6943,1.2158-.4609,2.3599-1.082,3.4312-1.8613l3.3579,5.4756c-1.5581,1.0225-3.2739,1.8369-5.1465,2.4453-1.874.6084-3.7358.9131-5.5845.9131Z" fill="#005740"/>
    <path d="m765.2608,255.1772l-17.1553-31.3896h8.687l11.3149,23.7246-4.5259-.2188,10.293-23.5059h8.1758l-16.4248,31.3896h-.3647Z" fill="#005740"/>
    <path d="m802.5645,255.0317c-3.5044,0-6.5225-.6934-9.0522-2.0811-2.5308-1.3867-4.478-3.3096-5.8398-5.7666-1.3633-2.457-2.0439-5.2441-2.0439-8.3594,0-3.0166.7661-5.7539,2.2993-8.2119,1.5332-2.457,3.5884-4.417,6.1685-5.876,2.5791-1.4609,5.4502-2.1904,8.6138-2.1904,4.0879,0,7.4824,1.1807,10.1836,3.54,2.7012,2.3613,4.5137,5.6836,5.4385,9.9648l-24.8926,8.6133-1.752-4.2334,20.002-7.2998-1.5332,1.0215c-.584-1.5566-1.5088-2.9072-2.7744-4.0508-1.2656-1.1426-2.9922-1.7158-5.1826-1.7158-2.7261,0-4.9526.9375-6.6797,2.8105-1.728,1.874-2.5913,4.2705-2.5913,7.1904,0,3.1152.9238,5.6211,2.7739,7.5195,1.8491,1.8975,4.1851,2.8467,7.0078,2.8467,1.3145,0,2.5791-.2305,3.7959-.6943,1.2158-.4609,2.3604-1.082,3.4316-1.8613l3.3574,5.4756c-1.5576,1.0225-3.2734,1.8369-5.1465,2.4453-1.874.6084-3.7354.9131-5.584.9131Z" fill="#005740"/>
    <path d="m833.1505,223.7876l.7305,8.7598-.292-1.168c.8262-1.8496,1.9824-3.4316,3.4668-4.7451s3.041-2.3232,4.6719-3.0293c1.6309-.7051,3.0049-1.0586,4.125-1.0586l-.3652,7.2998c-2.2881-.1465-4.2959.292-6.0225,1.3145-1.7275,1.0215-3.0781,2.3848-4.0518,4.0879s-1.46,3.5293-1.46,5.4746v13.5781h-7.373v-30.5137h6.5703Z" fill="#005740"/>
    <path d="m857.3126,210.4282h7.4463v13.4316h8.1758v5.7676h-8.1758v24.6738h-7.4463v-24.6738h-5.4014v-5.7676h5.4014v-13.4316Z" fill="#005740"/>
    <path d="m908.7764,255.0317c-2.2383,0-4.3926-.5-6.46-1.4971-2.0693-.9971-3.6865-2.3721-4.8545-4.124l.4375-2.2637v21.8271h-7.373v-45.6982h6.3516l1.0215,7.5195-.7295-2.1172c1.46-1.7998,3.2959-3.2725,5.5117-4.416,2.2139-1.1436,4.708-1.7158,7.4824-1.7158,2.8711,0,5.4492.6826,7.7373,2.0439,2.2871,1.3633,4.0889,3.2734,5.4023,5.7305,1.3145,2.458,1.9707,5.3418,1.9707,8.6504,0,3.3105-.7178,6.168-2.1533,8.5781-1.4355,2.4082-3.3945,4.2588-5.876,5.5469-2.4824,1.2891-5.3057,1.9355-8.4688,1.9355Zm-1.46-5.8398c1.8984,0,3.6377-.4385,5.2197-1.3145,1.5811-.876,2.8467-2.0801,3.7959-3.6133s1.4238-3.2734,1.4238-5.2197c0-1.9951-.4385-3.7705-1.3145-5.3291-.876-1.5566-2.0684-2.7734-3.5762-3.6504-1.5098-.875-3.1885-1.3135-5.0371-1.3135-2.5312,0-4.6611.6826-6.3877,2.0439-1.7285,1.3633-2.9092,3.1641-3.541,5.4023v5.4746c.3896,2.1895,1.46,3.9902,3.2119,5.4023s3.8203,2.1172,6.2051,2.1172Z" fill="#005740"/>
    <path d="m931.5518,238.7524c0-3.0664.7305-5.8281,2.1904-8.2852s3.4785-4.3926,6.0586-5.8047c2.5791-1.4102,5.5234-2.1162,8.833-2.1162,3.3584,0,6.29.7061,8.7969,2.1162,2.5059,1.4121,4.4531,3.3477,5.8398,5.8047s2.0811,5.2188,2.0811,8.2852-.7061,5.8281-2.1172,8.2852c-1.4121,2.458-3.3711,4.4053-5.877,5.8398-2.5068,1.4355-5.4639,2.1543-8.8691,2.1543-3.2119,0-6.0957-.6572-8.6504-1.9717-2.5557-1.3135-4.5752-3.1992-6.0596-5.6572-1.4844-2.457-2.2266-5.3398-2.2266-8.6504Zm7.4463.0723c0,1.8984.4131,3.6143,1.2412,5.1465.8271,1.5332,1.958,2.75,3.3945,3.6504,1.4346.9014,3.0293,1.3506,4.7812,1.3506,2.7744,0,5.0488-.9727,6.8252-2.9199,1.7764-1.9463,2.665-4.3545,2.665-7.2275,0-2.8711-.8887-5.292-2.665-7.2627-1.7764-1.9717-4.0508-2.9561-6.8252-2.9561-1.8008,0-3.4072.4629-4.8184,1.3867-1.4121.9248-2.5303,2.166-3.3574,3.7227-.8281,1.5586-1.2412,3.2607-1.2412,5.1094Z" fill="#005740"/>
    <path d="m984.0391,255.5425c-2.8232,0-5.1348-.8525-6.9346-2.5557-1.8018-1.7031-2.75-3.8926-2.8477-6.5693v-22.6299h7.373v20.002c.0977,1.6055.5596,2.8965,1.3877,3.8691.8262.9736,2.1406,1.5088,3.9414,1.6055,1.6543,0,3.1396-.498,4.4531-1.4961,1.3145-.9971,2.3477-2.373,3.1025-4.125.7539-1.752,1.1318-3.7227,1.1318-5.9121v-13.9434h7.373v30.5137h-6.6436l-.584-7.1543.292,1.168c-.9248,2.0938-2.4707,3.8213-4.6348,5.1836-2.167,1.3613-4.6357,2.0439-7.4102,2.0439Z" fill="#005740"/>
    <path d="m1021.1954,223.7876l.7305,8.7598-.292-1.168c.8262-1.8496,1.9824-3.4316,3.4668-4.7451s3.041-2.3232,4.6719-3.0293c1.6309-.7051,3.0049-1.0586,4.125-1.0586l-.3652,7.2998c-2.2881-.1465-4.2959.292-6.0225,1.3145-1.7275,1.0215-3.0781,2.3848-4.0518,4.0879s-1.46,3.5293-1.46,5.4746v13.5781h-7.373v-30.5137h6.5703Z" fill="#005740"/>
    <path d="m1061.7091,255.5425c-2.8232,0-5.1348-.8525-6.9346-2.5557-1.8018-1.7031-2.75-3.8926-2.8477-6.5693v-22.6299h7.373v20.002c.0977,1.6055.5596,2.8965,1.3877,3.8691.8262.9736,2.1406,1.5088,3.9414,1.6055,1.6543,0,3.1396-.498,4.4531-1.4961,1.3145-.9971,2.3477-2.373,3.1025-4.125.7539-1.752,1.1318-3.7227,1.1318-5.9121v-13.9434h7.373v30.5137h-6.6436l-.584-7.1543.292,1.168c-.9248,2.0938-2.4707,3.8213-4.6348,5.1836-2.167,1.3613-4.6357,2.0439-7.4102,2.0439Z" fill="#005740"/>
    <path d="m1098.9385,223.7876l.6572,7.0801-.292-1.0215c.9727-2.1895,2.542-3.9414,4.708-5.2559,2.165-1.3145,4.709-1.9707,7.6289-1.9707,2.8711,0,5.2305.8398,7.0811,2.5176,1.8486,1.6797,2.7979,3.8828,2.8467,6.6074v22.5566h-7.373v-20.002c-.0488-1.5566-.5107-2.834-1.3867-3.832s-2.2393-1.5215-4.0879-1.5703c-2.5801,0-4.7344,1.0713-6.4609,3.2129-1.7275,2.1416-2.5918,4.8906-2.5918,8.248v13.9434h-7.373v-30.5137h6.6436Z" fill="#005740"/>
    <path d="m1155.4395,255.0317c-2.8721,0-5.4746-.6094-7.8105-1.8262-2.3369-1.2148-4.1865-3.0039-5.5488-5.3652-1.3623-2.3594-2.0439-5.292-2.0439-8.7959,0-3.4062.7178-6.3389,2.1543-8.7969,1.4346-2.4561,3.332-4.3545,5.6934-5.6943,2.3604-1.3379,4.9277-2.0068,7.7021-2.0068,2.9199,0,5.3281.6084,7.2266,1.8252s3.3584,2.6768,4.3799,4.3799l-.4375,1.168.7295-6.1318h6.7891v30.5137h-7.373v-7.7383l.7305,1.8252c-.1953.3896-.6094.9492-1.2412,1.6787-.6328.7305-1.46,1.4727-2.4824,2.2266-1.0215.7559-2.251,1.4004-3.6865,1.9346-1.4355.5352-3.0293.8037-4.7812.8037Zm1.9707-6.0596c2.4336,0,4.4902-.6445,6.1689-1.9346,1.6787-1.2891,2.7852-3.0527,3.3213-5.293v-6.2773c-.584-1.9951-1.7646-3.6504-3.54-4.9639-1.7773-1.3135-3.833-1.9717-6.1689-1.9717-1.752,0-3.3584.4277-4.8184,1.2773-1.46.8525-2.6279,2.0449-3.5039,3.5781s-1.3135,3.2969-1.3135,5.292c0,1.9473.4492,3.6992,1.3506,5.2559.8994,1.5576,2.1045,2.7861,3.6133,3.6865,1.5078.9014,3.1387,1.3506,4.8906,1.3506Z" fill="#005740"/>
    <path d="m1198.5089,255.1772l-17.1543-31.3896h8.6865l11.3154,23.7246-4.5264-.2188,10.293-23.5059h8.1758l-16.4248,31.3896h-.3652Z" fill="#005740"/>
    <path d="m1235.8135,255.0317c-3.5039,0-6.5225-.6934-9.0518-2.0811-2.5312-1.3867-4.4785-3.3096-5.8408-5.7666s-2.0439-5.2441-2.0439-8.3594c0-3.0166.7666-5.7539,2.2998-8.2119,1.5332-2.457,3.5889-4.417,6.1689-5.876,2.5781-1.4609,5.4492-2.1904,8.6133-2.1904,4.0879,0,7.4824,1.1807,10.1836,3.54,2.7012,2.3613,4.5137,5.6836,5.4385,9.9648l-24.8926,8.6133-1.752-4.2334,20.002-7.2998-1.5332,1.0215c-.584-1.5566-1.5088-2.9072-2.7744-4.0508-1.2656-1.1426-2.9922-1.7158-5.1826-1.7158-2.7256,0-4.9521.9375-6.6797,2.8105-1.7275,1.874-2.5908,4.2705-2.5908,7.1904,0,3.1152.9238,5.6211,2.7734,7.5195,1.8486,1.8975,4.1855,2.8467,7.0078,2.8467,1.3145,0,2.5791-.2305,3.7959-.6943,1.2158-.4609,2.3604-1.082,3.4316-1.8613l3.3574,5.4756c-1.5576,1.0225-3.2734,1.8369-5.1465,2.4453-1.874.6084-3.7354.9131-5.584.9131Z" fill="#005740"/>
    <path d="m1266.4727,223.7876l.6572,7.0801-.292-1.0215c.9727-2.1895,2.542-3.9414,4.708-5.2559,2.165-1.3145,4.709-1.9707,7.6289-1.9707,2.8711,0,5.2305.8398,7.0811,2.5176,1.8486,1.6797,2.7979,3.8828,2.8467,6.6074v22.5566h-7.373v-20.002c-.0488-1.5566-.5107-2.834-1.3867-3.832s-2.2393-1.5215-4.0879-1.5703c-2.5801,0-4.7344,1.0713-6.4609,3.2129-1.7275,2.1416-2.5918,4.8906-2.5918,8.248v13.9434h-7.373v-30.5137h6.6436Z" fill="#005740"/>
    <path d="m1300.3448,212.8374c0-1.1191.4492-2.0674,1.3506-2.8467.8994-.7783,1.8848-1.168,2.9561-1.168,1.0703,0,2.0439.3896,2.9199,1.168.876.7793,1.3145,1.7275,1.3145,2.8467,0,1.2168-.4385,2.1904-1.3145,2.9199s-1.8496,1.0947-2.9199,1.0947c-1.0713,0-2.0566-.3652-2.9561-1.0947-.9014-.7295-1.3506-1.7031-1.3506-2.9199Zm.3643,10.9502h7.373v30.5137h-7.373v-30.5137Z" fill="#005740"/>
    <path d="m1326.1856,223.7876l.7305,8.7598-.292-1.168c.8262-1.8496,1.9824-3.4316,3.4668-4.7451s3.041-2.3232,4.6719-3.0293c1.6309-.7051,3.0049-1.0586,4.125-1.0586l-.3652,7.2998c-2.2881-.1465-4.2959.292-6.0225,1.3145-1.7275,1.0215-3.0781,2.3848-4.0518,4.0879s-1.46,3.5293-1.46,5.4746v13.5781h-7.373v-30.5137h6.5703Z" fill="#005740"/>
    <path d="m1375.1671,255.0317c-2.2383,0-4.3926-.5-6.46-1.4971-2.0693-.9971-3.6865-2.3721-4.8545-4.124l.4375-2.2637v21.8271h-7.373v-45.6982h6.3516l1.0215,7.5195-.7295-2.1172c1.46-1.7998,3.2959-3.2725,5.5117-4.416,2.2139-1.1436,4.708-1.7158,7.4824-1.7158,2.8711,0,5.4492.6826,7.7373,2.0439,2.2871,1.3633,4.0889,3.2734,5.4023,5.7305,1.3145,2.458,1.9707,5.3418,1.9707,8.6504,0,3.3105-.7178,6.168-2.1533,8.5781-1.4355,2.4082-3.3945,4.2588-5.876,5.5469-2.4824,1.2891-5.3057,1.9355-8.4688,1.9355Zm-1.46-5.8398c1.8984,0,3.6377-.4385,5.2197-1.3145,1.5811-.876,2.8467-2.0801,3.7959-3.6133s1.4238-3.2734,1.4238-5.2197c0-1.9951-.4385-3.7705-1.3145-5.3291-.876-1.5566-2.0684-2.7734-3.5762-3.6504-1.5098-.875-3.1885-1.3135-5.0371-1.3135-2.5312,0-4.6611.6826-6.3877,2.0439-1.7285,1.3633-2.9092,3.1641-3.541,5.4023v5.4746c.3896,2.1895,1.46,3.9902,3.2119,5.4023s3.8203,2.1172,6.2051,2.1172Z" fill="#005740"/>
    <path d="m1407.1407,223.7876l.7305,8.7598-.292-1.168c.8262-1.8496,1.9824-3.4316,3.4668-4.7451s3.041-2.3232,4.6719-3.0293c1.6309-.7051,3.0049-1.0586,4.125-1.0586l-.3652,7.2998c-2.2881-.1465-4.2959.292-6.0225,1.3145-1.7275,1.0215-3.0781,2.3848-4.0518,4.0879s-1.46,3.5293-1.46,5.4746v13.5781h-7.373v-30.5137h6.5703Z" fill="#005740"/>
    <path d="m1424.4415,238.7524c0-3.0664.7305-5.8281,2.1904-8.2852s3.4785-4.3926,6.0586-5.8047c2.5791-1.4102,5.5234-2.1162,8.833-2.1162,3.3584,0,6.29.7061,8.7969,2.1162,2.5059,1.4121,4.4531,3.3477,5.8398,5.8047s2.0811,5.2188,2.0811,8.2852-.7061,5.8281-2.1172,8.2852c-1.4121,2.458-3.3711,4.4053-5.877,5.8398-2.5068,1.4355-5.4639,2.1543-8.8691,2.1543-3.2119,0-6.0957-.6572-8.6504-1.9717-2.5557-1.3135-4.5752-3.1992-6.0596-5.6572-1.4844-2.457-2.2266-5.3398-2.2266-8.6504Zm7.4463.0723c0,1.8984.4131,3.6143,1.2412,5.1465.8271,1.5332,1.958,2.75,3.3945,3.6504,1.4346.9014,3.0293,1.3506,4.7812,1.3506,2.7744,0,5.0488-.9727,6.8252-2.9199,1.7764-1.9463,2.665-4.3545,2.665-7.2275,0-2.8711-.8887-5.292-2.665-7.2627-1.7764-1.9717-4.0508-2.9561-6.8252-2.9561-1.8008,0-3.4072.4629-4.8184,1.3867-1.4121.9248-2.5303,2.166-3.3574,3.7227-.8281,1.5586-1.2412,3.2607-1.2412,5.1094Z" fill="#005740"/>
    <path d="m1473.7169,223.7876l.7305,8.7598-.292-1.168c.8262-1.8496,1.9824-3.4316,3.4668-4.7451s3.041-2.3232,4.6719-3.0293c1.6309-.7051,3.0049-1.0586,4.125-1.0586l-.3652,7.2998c-2.2881-.1465-4.2959.292-6.0225,1.3145-1.7275,1.0215-3.0781,2.3848-4.0518,4.0879s-1.46,3.5293-1.46,5.4746v13.5781h-7.373v-30.5137h6.5703Z" fill="#005740"/>
    <path d="m1507.9542,255.0317c-3.5039,0-6.5225-.6934-9.0518-2.0811-2.5312-1.3867-4.4785-3.3096-5.8408-5.7666s-2.0439-5.2441-2.0439-8.3594c0-3.0166.7666-5.7539,2.2998-8.2119,1.5332-2.457,3.5889-4.417,6.1689-5.876,2.5781-1.4609,5.4492-2.1904,8.6133-2.1904,4.0879,0,7.4824,1.1807,10.1836,3.54,2.7012,2.3613,4.5137,5.6836,5.4385,9.9648l-24.8926,8.6133-1.752-4.2334,20.002-7.2998-1.5332,1.0215c-.584-1.5566-1.5088-2.9072-2.7744-4.0508-1.2656-1.1426-2.9922-1.7158-5.1826-1.7158-2.7256,0-4.9521.9375-6.6797,2.8105-1.7275,1.874-2.5908,4.2705-2.5908,7.1904,0,3.1152.9238,5.6211,2.7734,7.5195,1.8486,1.8975,4.1855,2.8467,7.0078,2.8467,1.3145,0,2.5791-.2305,3.7959-.6943,1.2158-.4609,2.3604-1.082,3.4316-1.8613l3.3574,5.4756c-1.5576,1.0225-3.2734,1.8369-5.1465,2.4453-1.874.6084-3.7354.9131-5.584.9131Z" fill="#005740"/>
  </g>
  <path d="m1801.1179,183.0514s-3.0348-4.5606-4.9772-8.0773c-1.9425-3.5167.5846-6.2741,2.4523-6.497s4.1262,4.0316,4.5634,7.5987c.4372,3.567,3.2719,8.6576,7.2622,10.473,3.9903,1.8154,13.7552-1.0039,13.7552-1.0039,0,0-5.6104-3.0352-7.793-7.4909-2.1826-4.4557-1.043-5.1122.871-6.2455,1.914-1.1332,3.3667.6235,4.3864,4.1298.751,2.5823.0547,4.5445,3.9765,6.5229,4.1641,2.1006,7.3792-.381,10.2781-1.7611,2.8989-1.38,5.3654-1.6142,5.3654-1.6142,0,0-8.0611-6.2073-9.6876-8.9861s-2.7884-6.0008-.6142-7.0358c2.1742-1.035,4.5444,4.4988,5.8085,7.4501,1.2641,2.9513,4.9376,8.5893,7.3791,9.5894,3.3186,1.3594,10.7782-3.3542,10.7782-3.3542,0,0-3.5407-1.6451-5.5425-3.947-2.0018-2.3019-8.203-10.8269-10.1038-15.2415-1.9008-4.4146-1.4467-7.9804.3651-8.8429s7.2944,12.9641,8.7165,16.2844c1.4221,3.3203,7.1621,8.5892,10.0705,8.7591,2.9084.1699,3.3412-2.1285,6.5372-5.8706,3.196-3.7421,6.2465-3.1847,6.2465-3.1847,0,0-.3875-.8829-.35-2.0617.0343-1.0784-.0349-1.3223,1.089-4.3001,1.1239-2.9778,2.0638-5.0075,2.2213-8.9687.1574-3.9611-10.2032-4.4697-15.1374-4.7857-4.9341-.316-11.5221.5995-12.1636-2.4261s10.0885-3.9626,14.6717-3.4313c9.4714,1.0981,15.8144,5.8932,15.8144,5.8932,0,0,1.6172-7.9735.6228-9.2767-.9944-1.3032-11.0927-4.3171-18.6589-3.3314-4.3169.5624-7.1347.367-7.2295-2.1102-.0837-2.1884,8.2881-3.0572,15.4523-3.1366s12.5818,2.8933,12.5818,2.8933c0,0-.6332-10.1358-2.6684-11.8318s-8.0006-.8548-12.21-1.5158-8.3724-2.2323-8.6516-5.4304c-.2792-3.1981,3.1826-4.4341,7.4981-4.9018,3.9606-.4292,11.6896,1.3194,11.6896,1.3194,0,0-3.8576-11.0436-6.311-13.2067s-11.929-.8005-17.1809.6285c-6.1719,1.6794-9.5237,4.7558-10.2211,1.0905s3.1356-3.357,8.2573-4.6628c5.2427-1.3367,14.9722-.1775,14.9722-.1775,0,0-.0748-3.7396-2.426-6.1734-2.3512-2.4338-2.2122-5.1648-6.6912-7.474-4.4791-2.3092-11.3177.0581-18.9369,2.1307-7.6192,2.0726-11.2334,5.3476-12.5207,2.8514s3.6506-5.6844,9.6863-8.7658c6.2129-3.1718,11.982-4.2411,11.982-4.2411,0,0,.0221-1.538-5.089-5.3228-5.1111-3.7848-8.5958-4.7908-11.8434-3.2745-3.2476,1.5163-17.4347,12.3266-23.1577,18.8262-5.7231,6.4996-7.7856,8.8139-8.2691,6.1572-.4835-2.6567,5.8621-9.2306,10.6002-15.4834,4.7382-6.2528,15.3769-11.2063,15.3769-11.2063,0,0-12.8889-6.4112-16.8749-4.5137s-2.5829,2.1179-10.7119,14.2042c-8.129,12.0863-8.2217,13.907-10.8794,12.2853-2.6578-1.6217,1.0955-7.6277,3.1438-12.2669,2.0483-4.6392,9.3694-13.0099,9.3694-13.0099,0,0-14.3473-2.9411-19.9218,2.3775s-2.4986,7.4074-2.7672,14.4193c-.2686,7.012-.7426,10.3948-2.9442,10.9505-2.7634.6975-3.2878,1.8243-4.6002-5.1383-1.3873-7.3596,2.1836-14.6396,2.1836-14.6396,0,0-8.0574,5-9.7481,8.6917-1.6907,3.6917.0106,10.2101,4.2675,18.6209,4.2569,8.4108,9.7957,14.2127,9.7957,14.2127,0,0-6.4566-4.5311-15.1019-7.6513-7.3212-2.6423-17.8853-1.8214-17.8853-1.8214l1.0218,3.5932s4.8535-2.0333,14.163.088c7.7677,1.77,17.0788,8.4965,17.0788,8.4965,0,0-17.2747.0893-23.89,5.015-6.6153,4.9257-2.1446,14.3451-2.1446,14.3451-.062.1003,1.3924-5.4864,5.3269-7.8688,4.2582-2.5784,4.949-1.2423,6.4638.2573,1.5148,1.4996-.4479,3.8849-3.3908,5.8335-5.0191,3.3234-5.4914,1.9479-7.3021,11.4706-1.8107,9.5227,12.7041,14.3826,12.7041,14.3826,0,0-1.2272-5.4116.1379-11.3911,1.3652-5.9795,4.9699-10.8045,6.9955-10.6585,2.0257.146.4003,6.0274-2.4511,15.1572-2.8515,9.1298-5.1742,11.3459-4.9224,18.5543.2518,7.2084,15.2312,11.6251,15.2312,11.6251,0,0-2.1461-6.1748-1.1813-14.8853.7726-6.9746,1.4562-8.9231,4.2625-8.4825,2.8062.4407,2.6134,12.2183,2.428,15.8597-.1854,3.6413-.7691,9.8994,1.5644,13.9692,2.5572,4.4599,17.6245,1.9367,17.6865,1.9698Zm53.8095-75.9196c1.362,3.9034-3.6587,4.1679-6.6238,5.2278-2.9651,1.0598-7.3153,1.8346-8.7511-.1685-1.4358-2.0032-.8131-5.4674,4.2063-7.5411,0,0,9.0402-3.6181,11.1686,2.4819Zm-43.8681-18.4469c-1.5724-1.1422,3.667-4.493,6.4188-6.486,2.7518-1.993,5.7104-4.7467,8.0196-3.4572,2.3092,1.2894.3663,2.747-4.1835,6.3713,0,0-7.7601,5.3841-10.2549,3.5719Zm19.3242,4.5749s10.8118-5.3134,12.2758-1.5135c.9227,2.3951-6.2157,5.5405-10.0972,7.5548s-8.4016,5.1298-9.977,2.2157,1.1938-4.4148,7.7984-8.257Zm-46.6504-5.3226s1.702-4.4805,3.5893-3.3372c.8038.487.4384,3.0187-.057,4.5553-.4954,1.5366-1.5087,3.4848-2.6721,3.2412-1.1634-.2436-1.5962-1.7484-.8601-4.4593Zm13.088,14.3132c-1.2987-.7585,2.355-3.9189,4.252-5.764,1.897-1.8451,3.879-4.3144,5.7497-3.5087,1.8706.8056.536,2.1485-2.5695,5.4607,0,0-5.3718,5.0155-7.4322,3.812Zm28.0915,16.7773c-.9416-1.6907-.255-4.8141,3.6195-6.9824,0,0,6.9707-3.8011,8.1655,1.4915.7645,3.3868-2.9948,3.9448-5.2729,5.0787-2.2781,1.1338-5.5705,2.1029-6.5121.4122Zm14.2221,9.6802c-.5856-1.8016,1.0123-3.7675,5.0616-5.2529,0,0,6.9028-2.1459,7.6897,1.3484.6835,3.035-4.1706,3.8241-6.5262,4.5599-2.3556.7358-5.6395,1.1463-6.2251-.6554Zm-20.5726,30.7209c.8829,2.021,1.6326,5.0281.3003,6.1417-1.3323,1.1136-3.0781.1942-4.7683-3.2121,0,0-2.3272-6.1903.4953-7.2911,1.2022-.4689,3.0897,2.3405,3.9726,4.3615Zm12.773-15.0331s4.7525,11.0628,1.0078,12.6275c-2.3602.9862-5.1458-6.3232-6.9557-10.2933-1.8098-3.97-4.6649-8.5818-1.7761-10.2483,2.8888-1.6664,4.2418,1.165,7.7239,7.914Zm-53.8595-31.1641s1.4486-3.6949,3.0447-2.9016c.6798.3378.3663,2.3872-.0557,3.6487-.422,1.2615-1.2832,2.8857-2.268,2.7657-.9848-.12-1.3488-1.2962-.721-3.5129Zm16.7182,13.5733s.1393-5.8465,2.7714-5.6466c1.121.0852,1.7276,3.0569,1.7813,5.0129.0537,1.9559-.3207,4.6502-1.7564,5.0312-1.4357.3811-2.543-1.0235-2.7963-4.3975Zm14.9926,8.4069c2.1005-.4851,3.6221,5.9932,4.6987,9.5541,1.0766,3.5608,2.9615,7.8043.3387,8.7803s-3.443-1.5724-5.6149-7.6835c0,0-2.755-9.8812.5775-10.6508Zm-29.0122,2.7945s.3822-7.3704,2.6976-8.067c1.4594-.4391,1.0253,4.403.9416,7.0562-.0838,2.6531.2043,5.7941-1.6988,6.6221-1.903.828-1.8752-1.0691-1.9404-5.6112Zm13.79,11.8246s-2.8669-14.8018,1.3635-13.901c2.0854.4441,2.5447,8.9948,3.6213,12.5557,1.0766,3.5608,3.2217,11.0709.5989,12.0469-2.6228.976-3.4118-4.5905-5.5837-10.7016Z" fill="#00c893"/>
  <path d="m180.7936,241.7349c-30.9884,26.4105-71.9433,5.2497-88.3872-2.8171-14.6618-7.1926-22.8891-22.8891-4.93-42.9611,2.7361.6867,9.1239,1.6339,16.9027-1.0564,2.0776-.7184,10.3987-3.5953,14.7899-11.2685,3.7186-6.497,2.4122-14.0434-.3521-28.8755-1.3628-7.3104-1.648-6.504-5.9864-25.002-1.148-4.8877-3.4193-14.8286-3.5214-27.4669-.0528-6.7998.5388-12.0855,3.5214-13.3813,1.3417-.581,3.0777-.3662,4.2257.3521,2.8171,1.7607,3.708,7.2717,5.9864,10.9164,1.7607,2.8171,4.1341,2.627,5.6342,1.7607,1.648-.9473,1.7924-4.4053.3521-11.2685-2.0882-9.9515-4.8701-14.4835-8.4514-23.5934,0,0-6.9055-17.5577-4.5778-31.6926.1338-.817.5388-3.0848,2.1128-3.8735,0,0,1.0177-.4684,2.465,0,7.2259,2.3452,36.6226,48.2432,36.6226,48.2432,7.0428,12.6771,28.5234,32.7491,38.5594,48.7714,7.8563,12.5432,15.4238,28.3015,16.1985,50.0039.2993,8.3985.736,27.4458-10.5642,45.7782-3.6975,6.0005-9.6521,9.617-20.6214,17.4908" fill="none" stroke="#fff" stroke-miterlimit="10" stroke-width="5"/>
  <path d="m223.0166,71.9726c3.2411,3.2811,1.7018,19.0248,5.0392,28.9735,3.476,10.3621,12.9843,30.0183,3.7669,36.7523-9.2174,6.734-20.3334,8.7933-28.7924,8.3947-8.459-.3986-26.1131-4.2426-26.6199-.0745s12.9852,9.2729,23.507,10.6089c10.5218,1.336,14.5002,2.7512,22.5889,2.4945,7.2547-.2302,17.2428-8.4384,17.2428-8.4384,0,0-.1472,33.2876-18.5124,38.7235-18.3652,5.436-36.3876-5.9929-39.8165-7.7575-7.5138-3.8667-28.2375-14.3713-27.9645-6.77s17.7157,13.0353,24.119,16.0185,15.172,7.8476,21.7431,8.8544c6.5711,1.0068,17.2496.7093,17.2496.7093,0,0-41.146,52.7282-77.6636,39.4988-36.5176-13.2293-35.964-13.4841-39.4623-23.6507-3.4983-10.1666,3.4722-30.9947,3.4722-30.9947,0,0-.2904,12.4276,3.3087,19.1581,3.5991,6.7305,9.0219,13.1533,9.0219,13.1533,0,0-6.7165-9.2099-8.451-17.622-1.7344-8.4121-.8922-16.5329-.8922-16.5329,0,0,12.2268,16.4056,20.3575,24.2788,8.1307,7.8733,25.7991,18.7612,25.7991,18.7612,0,0-18.317-13.162-25.2048-22.1565-6.8878-8.9945-18.9969-23.7827-18.9969-23.7827,0,0,5.4928-6.23,8.4581-7.1035,3.5397-1.0427,21.6455,17.2159,37.917,23.8281,22.2396,9.0375,30.7963,5.8577,30.7963,5.8577,0,0-9.39,4.1607-33.4664-9.8567-24.1952-14.0865-31.7334-23.3639-31.7334-23.3639l16.8859-15.0516s26.0138,13.4744,49.0625,15.1113c22.8161,1.6204,19.4388,1.7472,19.4388,1.7472,0,0-13.9674-2.471-28.2476-5.237-17.3383-3.3584-36.8678-14.5545-36.8678-14.5545l24.5107-23.7556s19.8918,6.327,29.5936,5.6044c9.7019-.7227,18.6535-6.9648,18.6535-6.9648,0,0-10.1507,7.7498-22.0064,5.0013-11.8557-2.7485-22.1026-5.9756-22.1026-5.9756l39.9557-40.3049-28.2119,23.6248s-2.2684-5.4376-1.5587-10.6165c.5359-3.9105,4.379-14.333,4.379-14.333,0,0-3.5501,6.6704-5.2123,12.7325s-.4271,15.2492-.4271,15.2492l-28.3125,25.8873s-4.7045-4.6778-7.5248-19.2279c-2.8203-14.5501-.6442-21.2584-.6442-21.2584,0,0-1.3713,22.4684.7022,28.6887s4.7519,14.3283,4.7519,14.3283l-22.1598,18.5928s-5.6816-6.9803-9.916-20.1937-5.7538-21.4545-5.7538-21.4545c0,0,4.1648,21.2455,5.9358,26.522s8.4037,15.4746,7.292,17.7551c-1.1117,2.2805-12.2572,10.9973-12.2572,10.9973,0,0,2.1029-.4372-4.5226-7.1133s-17.067-10.7613-20.7733-17.577c-3.7062-6.8157-5.9251-21.2391-5.9251-21.2391,0,0,2.8843,20.5174,5.5581,23.7602,5.8966,7.1513,13.6582,9.4566,18.0934,15.7971,4.4352,6.3405,4.1398,8.9187,4.1398,8.9187,0,0,1.8588-.8658-2.0592.8236-2.7207,1.1732-11.2106-2.2354-17.1438-6.2512-5.9332-4.0157-14.4184-17.3282-14.4184-17.3282,0,0,6.4382,13.0909,16.7435,20.5839,4.9338,3.5875,12.118,5.0669,12.118,5.0669,0,0-18.5731,8.7869-27.6513-.5432-9.0782-9.3302-24.7382-24.9501-11.0116-52.36,13.7266-27.4099,27.0187-36.1776,31.5199-39.6301,4.5012-3.4525,17.3267-9.4266,17.3267-9.4266,0,0-1.5971,17.0144-.464,25.2998,1.1331,8.2854,4.5511,21.2012,8.6696,19.554s2.1145-15.8996,3.2521-26.5986,3.3467-22.3038,8.4492-25.6297,26.3576-2.2438,26.3576-2.2438c0,0-5.0811,13.8917-4.3816,20.0741.6995,6.1824.3712,13.6571,2.8203,14.5501s5.066-.1903,6.5354-16.603c1.4695-16.4127,1.8594-14.696,6.1455-18.3196,4.2862-3.6235,15.9705-.6597,27.2685,2.3486s24.1527,1.264,26.5833,3.2101Z" fill="#00c893"/>
  <path d="m187.4631,236.8648c-11.1487,8.0007-21.6143,13.7863-26.9176,16.3147-19.0543,9.0888-63.2268,19.8466-104.9378-1.7607-10.5184-5.4476-38.0347-19.7022-47.5389-50.0039-7.6802-24.4843,1.0177-46.6234,4.4018-55.8142,1.2325-3.3453,7.9619-16.8851,22.0088-39.2636,29.8052-47.4791,32.0835-45.8311,36.4465-51.9407.8804-1.2325,3.3101-4.7574,6.1625-6.8667,1.1973-.8874,2.5636-1.8663,3.8735-1.4086,1.6234.5669,1.0846,3.5707,2.1128,3.8735,1.5635.4613,4.6835-5.6765,5.4582-7.2189,3.7362-7.4407,5.6025-11.1629,7.7471-16.1985,8.4478-19.8572,12.2122-21.2376,14.0856-21.4806.3451-.0458,2.6833-.3134,4.5778,1.0564,2.1762,1.5741,2.6305,4.4863,2.8171,7.7471.3873,6.8174-.8029,12.3636-4.2257,18.3113-2.7573,4.7891-7.0182,11.927-8.8035,15.142,0,0-4.6694,7.5957-7.0428,15.8463-.2958,1.0318-.4789,2.1023,0,2.465.5775.4367,1.9508-.2747,2.8171-1.0564,1.479-1.3346,2.0776-2.4192,3.1693-3.8735,1.0564-1.4086,4.0989-4.8032,6.3385-3.8735,2.1164.8768,2.6023,4.0954,2.8171,5.6342.8592,6.1836-1.8135,11.8108-6.3385,19.0156-4.8525,7.726-6.8914,9.3986-10.5642,14.7899-1.3064,1.9156-7.6908,11.4516-11.6206,24.2977-.7113,2.3276-4.1482,13.9272-3.5214,29.2276.2676,6.5569,1.5987,23.9279,12.0009,42.778,7.8492,14.223,17.2337,22.7307,20.0438,25.1851,10.1452,8.8598,19.8959,13.325,24.2977,15.142,2.1913.9046,11.4025,4.4179,24.2096,5.4969,10.869.9157,19.9338-.3137,26.1464-1.6234" fill="none" stroke="#fff" stroke-miterlimit="10" stroke-width="5"/>
</svg>