<?xml version="1.0" encoding="UTF-8"?>
<svg id="Layer_1" data-name="Layer 1" xmlns="http://www.w3.org/2000/svg" viewBox="0 0 2000 2000">
  <path d="m1093.9434,190.6503s-56.7655,155.3612-66.7401,189.2023c-9.9746,33.8411-25.9568,84.6026-38.7426,106.1379-12.7858,21.5352-137.4576,206.6462-137.4576,206.6462l-9.9794-24.3601s35.6725-96.8649,59.5347-140.7539c47.9467-88.1865,75.1403-116.5942,94.2951-147.6701,54.0845-87.7443,99.0898-193.817,99.0898-193.817" fill="#00c893"/>
  <path d="m322.959,753.8463s179.5938,37.9741,218.4552,43.902c38.8614,5.9278,97.2637,15.8201,122.6887,25.9057,25.425,10.0856,255.6342,94.5791,255.6342,94.5791l12.7858,40.3675s-180.1629-28.1186-231.7423-46.5204c-103.639-36.9751-119.1092-67.3653-155.8742-82.61-103.8079-43.0442-227.0999-75.0984-227.0999-75.0984" fill="#00c893"/>
  <path d="m362.8647,1049.9393s198.8676,43.0992,241.8947,49.8481c43.0272,6.7489,107.6919,17.9989,135.8554,29.4023,28.1635,11.4034,283.1536,106.9703,283.1536,106.9703l14.2371,45.4687s-199.4768-32.0053-256.6073-52.8217c-114.7931-41.8266-131.9805-76.0686-172.7068-93.3019-114.9927-48.6592-251.5288-84.9844-251.5288-84.9844" fill="#00c893"/>
  <path d="m369.9485,1242.7995s264.4524-1.614,303.6623,1.5382c66.5037,5.3464,214.3084,36.0613,239.7334,46.1469,25.425,10.0856,140.6436,61.5292,140.6436,61.5292l12.7858,40.3675s-160.5987-17.2457-225.7499-31.1381c-107.9135-23.0108-118.3558-33.606-154.6271-49.9095-156.6258-70.4014-231.7714-59.9278-231.7714-59.9278" fill="#00c893"/>
  <path d="m1562.8685,1089.6868s-129.7323,178.1053-151.8981,202.6424c-37.5953,41.6172-137.4811,103.585-158.8029,115.061-21.3218,11.476-150.2329,92.2938-150.2329,92.2938l-13.8358-25.529s89.3967-104.9584,138.843-134.1082c88.8536-52.3814,140.7356-60.3515,173.8604-91.0942" fill="#00c893"/>
  <path d="m1616.5623,801.3276s-169.4116,178.4347-263.1279,292.57c-35.527,43.2676-137.4811,103.585-158.8029,115.061-21.3218,11.476-150.2329,92.2938-150.2329,92.2938l-13.8358-25.529s98.0456-94.4507,138.843-134.1082c69.976-68.0208,136.8407-122.7125,169.0658-138.7794,131.6978-65.6624,175.8045-104.5996,175.8045-104.5996" fill="#00c893"/>
  <path d="m1450.3471,530.5965c.211-.4298-17.5805,53.8406-113.4738,215.3548-15.0409,25.3335-71.937,134.4244-175.8045,212.6493-63.7805,48.0345-179.001,130.376-179.001,130.376l-13.8358-25.529s98.0456-94.4507,138.843-134.1082c69.976-68.0208,124.4243-140.0393,149.8871-164.9293,102.2863-99.9849,121.4649-132.2878,121.4649-132.2878" fill="#00c893"/>
  <path d="m1266.5515,364.4703s-75.6564,164.5219-89.5005,199.9699c-13.8441,35.448-48.5536,88.8084-63.9289,110.7526-15.3753,21.9442-191.7867,230.7345-191.7867,230.7345l-11.1796-15.5301s87.9512-159.5052,117.0476-204.4368c58.4636-90.2816,69.3827-103.4639,92.2882-135.0628,64.6746-89.2209,171.0333-241.8036,171.0333-241.8036" fill="#00c893"/>
  <path d="m898.9602,276.7912c-7.3717,22.5596-7.3426,44.3526-15.6641,58.4527-8.3215,14.1002-106.7743,193.9951-106.7743,193.9951l-6.2938-9.5426s41.3226-104.9016,53.6157-135.2292q26.8655-66.2784,37.1211-87.6791c30.0018-62.6064,84.4176-178.877,85.942-181.5111" fill="#00c893"/>
  <path d="m980.4696,157.8851s-40.9824,139.794-48.1837,170.2441c-7.2013,30.4502-18.7398,76.1254-27.9706,95.5028-9.2308,19.3774-99.2389,185.9402-99.2389,185.9402l-7.2047-21.9192s25.7541-87.159,42.9817-126.6503c34.6156-79.3502,54.2483-104.9114,68.0773-132.8735,39.0469-78.9523,71.5389-174.3964,71.5389-174.3964" fill="#00c893"/>
  <path d="m290.0374,598.2812s187.7422,85.0549,227.4035,97.9439c37.2788,12.1147,97.2637,15.8201,122.6887,25.9057,25.425,10.0856,242.8484,100.732,242.8484,100.732l13.842,32.3458s-168.4333-26.2498-220.0127-44.6517c-103.639-36.9751-119.1092-67.3653-155.8742-82.61-103.8079-43.0442-144.5917-77.3659-144.5917-77.3659" fill="#00c893"/>
  <path d="m613.3343,1019.2534c38.8614,5.9278,97.2637,15.8201,122.6887,25.9057,25.425,10.0856,255.6342,94.5791,255.6342,94.5791l8.2496,26.0459s-175.6268-13.797-227.2062-32.1989c-103.639-36.9751-123.0572-44.7463-159.8223-59.991-103.8079-43.0442-255.7156-72.2968-255.7156-72.2968" fill="#00c893"/>
  <path d="m356.5217,855.3695s110.9184,87.4753,195.6242,94.9453c39.1823,3.4554,145.3041,5.1323,172.6081,8.2858,79.9111,9.2294,228.5459,61.1557,228.5459,61.1557l.7991,23.9642s-159.72,9.2995-206.9699-17.8113c-83.1076-47.6851-129.0481-35.8124-191.7867-44.6087-111.8514-15.6821-203.9731-125.4056-203.9731-125.4056" fill="#00c893"/>
  <path d="m1709.8231,1180.1032s-173.8947,152.7381-271.8807,251.4819c-37.1456,37.4329-136.3377,85.8747-156.9498,94.9539-20.6121,9.0792-146.5591,74.5344-146.5591,74.5344l-9.5499-24.5698s99.6173-80.2513,141.1101-113.9732c71.1685-57.84,137.9774-103.5893,168.9817-116.1313,126.7088-51.2565,171.1104-84.0769,171.1104-84.0769" fill="#00c893"/>
  <path d="m1637.3392,1555.0602s-168.9882,89.2529-194.9832,95.3703c-44.0899,10.3756-137.3689,21.7646-156.3423,20.1361-18.9734-1.6285-139.3733-4.3905-139.3733-4.3905l4.0901-21.4862s107.8236-28.3877,153.0854-26.1825c81.3341,3.9626,110.6333.5326,146.533-4.938" fill="#00c893"/>
  <path d="m673.6108,1731.0039s139.0454-118.1123,206.1707-137.4879c41.7498-12.051,112.0207-8.6125,130.1104-3.0092,18.0897,5.6033,133.6763,32.9667,133.6763,32.9667l-6.1894,22.4222s-106.749,8.8898-150.0789-2.6595c-77.8627-20.7538-112.3131-23.5703-171.4473,4.1178" fill="#00c893"/>
  <path d="m1159.2104,1708.8832s-99.7588-23.0734-178.0718-9.2294c-78.3129,13.8441-71.0568,24.6117-91.6335,44.6087-20.5767,19.997-14.351,23.0734-39.9226,41.5322-25.5716,18.4588-36.8428,29.2264-36.8428,29.2264,0,0,19.651-21.5352,84.1219-43.0704,64.471-21.5352,82.1977-7.5,134.3909-16.825,52.1932-9.3249,127.9577-24.1218,127.9577-24.1218v-22.1207Z" fill="#00c893"/>
  <path d="m351.3692,1328.9404s260.4211,50.6296,402.1528,44.6087c53.7292-2.2825,160.0853,21.5435,181.493,28.7176,21.4076,7.1741,154.7234,35.8881,154.7234,35.8881v36.0002s-138.4244-1.9438-192.6236-5.2356c-92.9627-5.6461-171.7889-27.5723-203.1883-39.1682-128.3232-47.3901-184.1791-53.2701-184.1791-53.2701" fill="#00c893"/>
  <path d="m465.8419,1535.0632s184.3058-29.3584,326.0375-35.3793c53.7292-2.2825,146.4315-.7523,169.0983-.5088,47.3477.5088,151.918,49.7321,151.918,49.7321v22.1561s-135.619-1.9438-189.8182-5.2356c-92.9627-5.6461-160.1196-4.8583-193.1859-10.7676-137.7182-24.6117-151.2035-18.4588-151.2035-18.4588" fill="#00c893"/>
  <path d="m1648.5267,979.7622s-178.9097,143.1546-280.204,236.3853c-38.3997,35.3429-138.9803,78.6634-159.8434,86.6872-20.8631,8.0238-148.7233,66.9412-148.7233,66.9412l-8.5711-24.8019s102.2144-74.826,144.8002-106.2856c73.0433-53.9596,141.2867-96.1424,172.6261-107.1068,128.0782-44.8094,173.5252-75.238,173.5252-75.238" fill="#00c893"/>
  <path d="m1010.8358,1183.8595s103.8845-149.9193,171.0098-192.9897c67.1254-43.0704,423.529-208.6001,423.529-208.6001,0,0-234.3906,128.2996-281.8122,168.5146-47.4217,40.2151-138.5204,126.1212-167.2884,146.1182-28.768,19.997-145.4383,98.6693-145.4383,98.6693l-10.929-11.7123h10.929Z" fill="#00c893"/>
  <path d="m1402.0635,508.6747s-100.7358,150.2075-119.4053,182.8462c-18.6695,32.6387-63.907,80.2182-83.8711,99.6618-19.964,19.4436-247.1246,201.0709-247.1246,201.0709l-13.1241-16.2291s115.7025-143.9932,153.6331-184.0717c76.2144-80.53,90.2862-92.0219,119.9794-119.9343,83.8403-78.8121,221.9763-214.069,221.9763-214.069" fill="#00c893"/>
  <path d="m1154.6508,338.2929s-60.3356,137.2225-71.4004,166.7782c-11.0648,29.5557-38.6452,74.1046-50.8549,92.4297-12.2096,18.3251-152.1044,192.808-152.1044,192.808l-8.7351-12.8762s69.9968-133.0995,93.1178-170.6109c46.4574-75.3721,55.1175-86.3875,73.3019-112.7782,51.3446-74.5156,135.8084-201.9319,135.8084-201.9319" fill="#00c893"/>
  <path d="m368.6761,561.3155s151.6336,34.9233,184.0268,40.7427c32.3932,5.8193,82.7238,24.2061,103.5466,32.532,20.8227,8.3258,201.2368,97.9766,201.2368,97.9766l8.8715,19.8934s-148.6613-43.9935-191.027-59.3854c-85.1258-30.9271-97.8248-37.0967-127.8954-49.6169-84.9058-35.3516-229.6288-92.8616-229.6288-92.8616" fill="#00c893"/>
  <path d="m350.1047,493.7083s145.6917,30.2045,176.8216,35.213c31.1299,5.0085,79.4631,21.0122,99.4568,28.2657,19.9937,7.2535,193.1596,85.5077,193.1596,85.5077l8.4577,17.4715s-142.7997-38.1945-183.4843-51.5907c-81.748-26.917-93.9374-32.3013-122.8089-43.2133-81.5201-30.8104-220.4823-80.9101-220.4823-80.9101" fill="#00c893"/>
  <path d="m347.8603,461.1525s133.5337,13.1558,161.8768,14.5878c28.3431,1.432,73.4253,11.5055,92.1569,16.2768,18.7316,4.7713,182.9848,60.8203,182.9848,60.8203l9.8071,15.7613s-132.0061-21.0905-169.9443-29.4983c-76.2297-16.8939-87.7754-20.7209-114.8817-28.0285-76.536-20.6333-206.6856-53.4959-206.6856-53.4959" fill="#00c893"/>
  <path d="m415.9963,317.02s99.1584,25.7802,120.336,30.0975c21.1777,4.3173,54.1127,17.8014,67.7409,23.9012,13.6282,6.0998,131.7636,71.6497,131.7636,71.6497l5.8595,14.4514s-97.2464-32.348-124.9691-43.6365c-55.7035-22.682-64.0184-27.1938-83.7008-36.363-55.5742-25.8895-150.2922-68.0265-150.2922-68.0265" fill="#00c893"/>
  <path d="m317.8065,335.2439s125.6602,64.6057,179.9998,73.835c54.3396,9.2294,94.8945,10.7676,127.3584,21.5352,32.4639,10.7676,126.759,53.838,126.759,53.838l2.9844,22.9066s-53.5281-2.9096-129.7434-22.9066c-76.2153-19.997-105.4063-50.7753-132.1531-56.9145-27.1698-6.2363-96.8922-36.6558-110.2774-45.8852-13.3852-9.2294-64.9277-46.4086-64.9277-46.4086Z" fill="#00c893"/>
  <path d="m835.5936,248.4284c-5.5014,19.68-5.7472,38.6101-11.8184,50.9525-6.0712,12.3424-78.0603,169.7235-78.0603,169.7235l-4.3447-8.2179s30.5747-91.5909,39.6596-118.0743q19.8544-57.8771,27.3858-76.583c22.0327-54.7229,62.0276-156.3379,63.1404-158.6433" fill="#00c893"/>
  <path d="m793.1668,189.1192c-3.4237,20.2184,6.2003,29.5889-9.2786,84.5955-13.6601,48.5433-60.9107,145.7362-60.9107,145.7362l-6.0623-7.5904s21.5415-94.735,28.0458-122.1588q14.2145-59.9324,20.0658-79.4456c17.1174-57.0846,47.8679-162.9671,48.7972-165.3957" fill="#00c893"/>
  <path d="m446.6632,288.3451s110.2774,13.8269,166.2152,33.9129c36.4653,13.0939,84.233,49.388,84.233,49.388l5.2674,10.0065s-75.1165-15.644-113.4738-32.5645c-38.3573-16.9205-142.2418-60.7429-142.2418-60.7429Z" fill="#00c893"/>
  <path d="m713.1354,82.9742s-10.7565,103.0614-.1746,175.7696c5.5545,38.1651-15.8493,112.9022-15.8493,112.9022l-7.5464-5.5259s-9.0614-73.5052-7.9631-115.4789c1.0983-41.9737,31.5334-167.6671,31.5334-167.6671Z" fill="#00c893"/>
  <path d="m452.257,135.274s91.0987,62.2983,118.2685,81.5262c27.1698,19.2279,75.1165,65.3748,75.1165,65.3748,0,0-14.384-30.7646-23.9733-69.9895-9.5893-39.2249-11.1876-83.8335-7.9911-100.7541,3.1964-16.9205,6.3929-28.4573,6.3929-28.4573,0,0-1.5982,52.2998,12.7858,75.3733,14.384,23.0734,31.9645,53.7844,35.96,73.8082,3.9956,20.0238,4.7947,103.0882,4.7947,103.0882l7.8988,14.9984-14.2917-15.2435s-70.9598-28.9813-105.0026-62.8223c-34.0428-33.8411-109.9584-136.9025-109.9584-136.9025Z" fill="#00c893"/>
  <path d="m673.6108,335.2439s151.685,199.6705,325.4997,780.0509c178.3294,595.4551,235.4765,793.5583,235.4765,793.5583l-30.3662,46.1469s-14.384-123.0584-193.385-727.5827c-179.001-604.5244-337.225-892.1734-337.225-892.1734Z" fill="#00c893"/>
</svg>