<?xml version="1.0" encoding="UTF-8"?>
<svg id="Layer_1" data-name="Layer 1" xmlns="http://www.w3.org/2000/svg" viewBox="0 0 2000 2000">
  <path d="m878.98,1411.41c-.85,1.08-55.75,70.09-140.73,129.21-85.64,59.58-154.48,88.25-197.54,75.39-42.73-12.76-109.2-92.23-110.24-93.48,1.24.4,85.84,27.75,163.81,1.42,74.3-25.08,61.14-29.1,49.25-58.32-9.47-23.27-47.28-23.27-124.55-15.44s-95.44,44.76-162.31-8.17c-66.86-52.93-56.67-214.71-56.67-214.71,0,0,103,67.38,157,82.7s125.6,47.23,139.29,15.61-6.41-29.84-151.38-100.37c-144.97-70.53-145.23-54.81-172.16-95.59-26.92-40.77,23.55-191.9,23.55-191.9,0,0,70.64,109,146.46,151.33,75.82,42.32,157.63,101.77,186,92.39,28.38-9.38-.15-28.43-80.19-81.17-80.04-52.75-220.33-191.64-241.95-224.91-21.61-33.26-15.94-73,17.69-134.84,33.64-61.84,50.53-63.97,50.53-63.97,0,0,20.58,61.6,64.9,124.82,43.05,61.42,85.58,110.65,110.97,92.7,25.38-17.94-16.07-52.53-50.5-132.85-34.43-80.33-70.88-151.66-52.46-204.3,18.43-52.64,48.58-55.32,71.64-84.83,23.07-29.51,63.94-36.08,63.94-36.08,0,0,2.25,108.43,24.96,163.84,22.18,54.13,24.69,96.62,63.8,83.34,39.1-13.27.23-45.28-27.67-110.35-23.73-55.38-53.23-157.14-33.29-187.36,19.94-30.22,135.06-89.47,135.06-89.47,0,0-7.29,87.4,3.51,130.16,11.75,46.58,30.62,82.63,65.25,74.65,34.62-7.97,45.45-56.02,46.22-103.18.78-47.15-17.61-111.24-2.14-136.16,15.46-24.91,125.58-47.43,125.58-47.43,0,0-24.25,63.95-12.37,142.36,11.88,78.4,34.27,168.83,58.12,164.55,27.01-4.85,24.82-36.03,12.02-82.49-22.43-81.41-4.91-196.73,7.84-209.64,12.76-12.9,102.64-7.43,102.64-7.43,0,0-42.81,76.9-40.29,182.4,1.22,51.06,27.98,167.23,60.16,155.55,32.18-11.69,12.02-82.49,7.9-137.06-4.12-54.57-14.47-168.91,29.19-173.27,43.66-4.37,67.35,2.82,101.72,10.56,34.37,7.74,36.94,6.61,48.81,5.33,12.98-1.4,22.06-7.01,22.06-7.01,0,0-1.42,34.3,44.51,63.58,45.93,29.28,71.78,30.49,74.39,62.63,2.61,32.14-46.32,103.15-80.53,123.84s-177.34,102.04-165.1,120.57c12.24,18.54,52.02,18.03,97.49-9.59s129.38-108.69,151.53-134.17c22.16-25.48,34.75-66.81,34.75-66.81,0,0,63.13,74.52,53.33,112.98-7.21,28.3-63.36,77.23-93.77,95.62s-87.42,52.88-72.74,75.12c14.69,22.24,48.22,4.55,76.18-17.55,27.96-22.1,83.61-119.99,83.61-119.99,0,0,6.36,26.67,25.94,56.33,19.58,29.65,51.72,61.08,35.1,109.95-15.66,46.03-38.24,41.41-65.39,53.61-36.86,16.57-53.89,35.19-38.52,54.43,15.36,19.23,24.31,30.72,69.79-.05,45.49-30.78,70.13-96.94,70.13-96.94,0,0,45.91,102.71,32.15,149.23-13.77,46.53-65.21,85.43-103.64,95.7-38.43,10.27-81.59,41.57-76.27,61.7,5.31,20.13,39.42,43.59,74.98,16.89,35.56-26.69,80.88-66.96,80.88-66.96,0,1.54,50.44,162.09,5.59,196.88-41.02,31.83-110.51,35.05-150.71,38.62-40.2,3.56-169.59,19.55-170.11,50.98-.51,31.44,21.9,35.94,99.53,33.69,96.96-2.81,161.35-35.82,161.35-35.82,0,0-25.4,170.97-104.02,184.81-78.63,13.84-106.49-8.22-210.94-25.44-104.46-17.22-171.42-26-169.91-3.57,1.52,22.42,59.94,54.52,127.58,60.3,67.64,5.77,125.07-16,125.07-16,0,0-30.96,166.57-138.12,161.35-107.16-5.21-92.81-12.5-136.95-62.41-25.88-29.26-55.05-47.11-69.16-28.2-14.1,18.91-27.69,28.54,7.12,71.25,31.31,38.41,92.29,46.41,94.39,46.31-2.17,1.42-97.07,62.71-160.49-1.48-64.16-64.94-91.68-254.15-91.68-254.15,0,0-59.42,112.39-66.89,200.26-8.94,105.3,20.8,155.37,20.8,155.37l-37.81,16.73s-25.23-114.54-7.52-198.85c20.75-98.77,60.04-176.07,60.65-177.28Zm620.82-501.65c34.74-23.76,42.13-44.31,27.88-57.2-14.26-12.9-46.06-.06-66.86,12.73-20.8,12.78-48.69,37.79-41.7,50.24,16.4,29.25,80.68-5.77,80.68-5.77Zm-106.38,239.89c63.64-33.19,123.45-50.4,108.72-77.65-14.73-27.24-93.75,7.81-131.13,25.08-37.37,17.28-130.39,35.45-132.06,58.99-3.37,47.75,154.47-6.42,154.47-6.42Zm-82.28-339.66c40.73-25.94,116.57-67.7,102.13-92.06-22.9-38.64-136.86,30.45-136.86,30.45-68.62,48.54-97.58,67.72-74.87,96.83,22.7,29.1,68.86-9.28,109.6-35.22Zm16.28,185.24c63.64-33.2,90.31-46.1,75.59-73.35-14.73-27.25-58.35-.07-95.72,17.2-37.38,17.28-106.05,43.91-97.51,66.19,13.56,35.34,117.64-10.04,117.64-10.04Zm-42.42,323.75c49.69-7.7,70.52-10.31,58.52-29.89-12-19.59-45.98-11.61-75.19-8.45s-82.95,5.85-75.9,21.17c11.2,24.31,92.57,17.17,92.57,17.17Zm-144.32-136.46c36.59-7.96,50.28-22.25,43.9-37.4-6.38-15.16-36.49-15.12-57.85-11.52-21.35,3.59-53,14.81-52.21,27.22,1.86,29.16,66.16,21.7,66.16,21.7Zm-48.21-495.52c18.85-9.19,9.3-44.55-2.38-69.24-11.69-24.69-27.8-76.68-60.01-64.53-37.09,14-2.96,86.36-2.96,86.36,22.5,42.1,46.5,56.6,65.35,47.41Zm-74.88,699.63c25.26,3.48,37.6-2.32,37.4-13.3-.2-10.98-19.33-17.92-33.8-20.61-14.48-2.69-37.43-2.97-40.08,5-6.25,18.71,36.48,28.91,36.48,28.91Zm-9.37-528.86c17.09-12.92,1.41-47.52-14.52-70.75-15.93-23.23-27.83-63.58-63.77-49.99-56.18,21.23-3.8,91.79-3.8,91.79,29.72,39.14,65.01,41.86,82.09,28.95Zm-97.43-149.97c19.75-18.81,4.57-65.31-11.61-96.18-16.17-30.87-26.78-85.49-67.48-64.57-63.59,32.71-10.04,126.24-10.04,126.24,30.45,51.83,69.38,53.33,89.13,34.51Zm-43.29,483.66c10.02-24.43-53.21-75.6-53.21-75.6-41.08-28.95-57.85-41.52-63.8-19.78-5.96,21.74,24.15,39.67,47.29,57.63,23.14,17.96,63.4,53.15,69.72,37.75Zm-47.64-281.27c29.52-21.75-11.57-66.5-39.62-105.95-28.04-39.45-73.49-112.86-98.32-99.07-39.41,21.89,35.45,132.23,35.45,132.23,52.26,66.49,72.97,94.53,102.49,72.79Zm-41.58,430.45c.88-13.13-22.03-21.24-39.63-24.31-17.61-3.07-45.92-3.19-50.02,6.37-9.63,22.45,42.09,34.22,42.09,34.22,30.85,3.9,46.68-3.16,47.56-16.28Zm-81.36-284.4c16.03-30.13-54.91-106.91-54.91-106.91-46.72-44.3-65.68-63.36-76.26-36.07-10.59,27.3,24.14,55.49,50.22,82.59,26.07,27.1,70.85,79.38,80.95,60.39Z" fill="#00c893"/>
  <path d="m1161.96,1670.79c.03.01.02.02-.03.02.02-.01.03-.02.03-.02Z" fill="#00c893"/>
</svg>