<?xml version="1.0" encoding="UTF-8"?>
<svg id="Layer_1" data-name="Layer 1" xmlns="http://www.w3.org/2000/svg" viewBox="0 0 2000 2000">
  <path d="m1394.4685,1744.7201c-31.6977,17.0494-146.1933-29.1123-228.0271-26.0113-85.2343,3.2299-253.3291,31.1797-283.4721-52.6511-30.143-83.8308-21.1067-171.5931.4879-234.0535,21.5946-62.4604,89.2165-186.1896,59.1226-199.154-30.094-12.9644-97.9992,76.8266-131.1507,152.67-33.1515,75.8434-52.5007,102.5186-68.374,163.6477-14.2368,54.8267,25.2488,147.6712,25.2488,147.6712,0,0-248.9186-74.3358-249.2169-223.8055-.2983-149.4697,124.9256-259.2694,145.6821-281.0619,45.4828-47.7529,169.7291-179.8124,112.2131-194.4913-57.516-14.6789-136.5776,103.969-173.0019,145.3516-36.4243,41.3826-92.1377,96.3363-114.1329,143.3228s-43.2601,127.5967-43.2601,127.5967c0,0-304.2831-424.0862-124.8881-668.4091,179.395-244.323,180.0843-239.6171,263.9038-243.4443,83.8195-3.8273,224.4355,94.1872,224.4355,94.1872,0,0-92.4135-29.5156-150.7263-17.3744-58.3128,12.1412-118.3345,38.6146-118.3345,38.6146,0,0,83.7364-30.0284,150.538-24.5084,66.8016,5.5199,125.7537,29.6923,125.7537,29.6923,0,0-149.7368,55.4563-226.5761,99.0138-76.8393,43.5576-197.2343,151.8968-197.2343,151.8968,0,0,138.849-108.193,221.3495-139.9779,82.5006-31.7849,219.868-89.9176,219.868-89.9176,0,0,34.5631,54.8334,34.5798,78.9586.0199,28.7981-176.5253,124.1969-261.8327,231.4834-116.5965,146.6371-111.6123,217.7022-111.6123,217.7022,0,0-10.4948-79.462,147.4293-228.8966,158.7034-150.1721,244.7531-186.2046,244.7531-186.2046l75.5502,159.5482s-158.1214,165.1355-221.0853,334.1129c-62.3285,167.2722-55.8484,141.7053-55.8484,141.7053,0,0,49.2301-99.1455,101.3579-199.9838,63.2909-122.4326,190.0879-244.0293,190.0879-244.0293l123.9469,235.7882s-91.1363,135.0211-107.0696,209.2542c-15.9333,74.2331,11.1116,154.9917,11.1116,154.9917,0,0-35.6955-93.054,10.9667-175.7771,46.6622-82.7231,93.3691-152.3478,93.3691-152.3478l213.8816,387.842-114.8255-263.2134s45.7047-5.0222,82.9204,11.6857c28.101,12.6159,97.6853,64.3206,97.6853,64.3206,0,0-42.1345-41.2565-83.8685-67.0391-41.734-25.7826-113.2394-36.7463-113.2394-36.7463l-131.5447-268.9442s45.3751-24.9343,160.5243-14.0406c115.1492,10.8937,160.5906,41.9457,160.5906,41.9457,0,0-165.2163-59.6989-216.353-57.8584-51.1367,1.8405-117.738,4.0575-117.738,4.0575l-90.463-206.8272s64.7646-27.1844,173.0168-29.8199c108.2522-2.6355,173.3002,4.1182,173.3002,4.1182,0,0-168.2398-15.5564-211.6442-13.9041-43.4044,1.6523-134.3553,28.8786-148.9847,15.5377-14.6294-13.3409-55.3768-115.9704-55.3768-115.9704,0,0-1.353,16.7077,63.2114-18.2137,64.5644-34.9213,118.1237-104.1153,177.3102-116.8712,59.1865-12.756,172.0644,2.3617,172.0644,2.3617,0,0-159.9709-23.5425-190.1341-10.6561-66.5182,28.4181-100.8551,81.4619-158.0877,100.721-57.2326,19.2592-75.8869,11.376-75.8869,11.376,0,0,2.3935,15.8224-1.6364-17.2304-2.7984-22.9525,41.4016-79.0219,84.5226-114.6122,43.121-35.5903,161.4663-69.8359,161.4663-69.8359,0,0-112.1826,19.4059-190.9594,80.0824-37.7159,29.05-64.5985,79.5866-64.5985,79.5866,0,0-24.9313-158.3984,64.901-205.8455,89.8323-47.447,241.2396-130.3382,416.2742,32.7432,175.0346,163.0814,211.4397,281.8957,227.3879,323.1943,15.9483,41.2985,32.4633,150.4732,32.4633,150.4732,0,0-123.8829-49.3902-188.4132-59.1341-64.5303-9.7439-168.7575-12.5661-165.4848,21.8947,3.2728,34.4608,114.3971,50.8122,192.0034,82.8678,77.6064,32.0556,159.6382,74.1273,173.3151,119.6498,13.6769,45.5225-41.1864,202.2905-41.1864,202.2905,0,0-92.8366-68.6074-140.6664-76.9713-47.8299-8.3639-103.0746-27.2668-115.1492-10.8937-12.0747,16.3732-9.7202,38.3503,109.9375,85.4613,119.6578,47.111,105.9467,46.2537,123.6486,86.3185,17.7018,40.0648-30.1962,121.0314-77.5765,199.0078-47.3803,77.9764-62.6007,178.0638-82.5197,191.9818Z" fill="#00c893"/>
</svg>