<?xml version="1.0" encoding="UTF-8"?>
<svg id="Layer_2" data-name="Layer 2" xmlns="http://www.w3.org/2000/svg" viewBox="0 0 774.3151 955.0783">
  <defs>
    <style>
      .cls-1 {
        fill: #00c893;
      }
    </style>
  </defs>
  <g id="Layer_3" data-name="Layer 3">
    <path class="cls-1" d="m546.0901,758.5217s21.9449,1.995,47.8797-27.9298c37.2404-42.9697,48.8772-102.7419,48.8772-102.7419,0,0,9.9749,56.8571,43.8897,101.7444,19.0284,25.1846,58.8521,28.9273,58.8521,28.9273,0,.9975-51.8697,15.9599-67.8296,34.9123-30.1627,35.8182-34.9123,95.7594-34.9123,95.7594,0,0-8.1009-49.8005-31.9198-88.777-21.9449-35.9098-64.8371-41.8947-64.8371-41.8947Z"/>
    <path class="cls-1" d="m407.5559,240.2273s40.3435,3.6676,88.0222-51.3463C564.041,109.8853,585.4341,0,585.4341,0c0,0,18.338,104.5264,80.687,187.0472,34.9818,46.2995,108.194,53.1801,108.194,53.1801,0,1.8338-95.3574,29.3407-124.6981,64.1829-55.4512,65.8483-64.1829,176.0444-64.1829,176.0444,0,0-14.8927-91.5535-58.6815-163.2078-40.3435-66.0167-119.1967-77.0194-119.1967-77.0194Z"/>
    <path class="cls-1" d="m0,552.0824s67.6787,6.1526,147.6626-86.1365c114.8507-132.5201,150.7389-316.8594,150.7389-316.8594,0,0,30.763,175.3494,135.3574,313.7831,58.6842,77.6702,181.502,89.2128,181.502,89.2128,0,3.0763-159.9678,49.2209-209.1887,107.6707-93.0228,110.4646-107.6707,295.3252-107.6707,295.3252,0,0-24.9834-153.5865-98.4417-273.7911C132.2811,570.5402,0,552.0824,0,552.0824Z"/>
  </g>
</svg>